<svg version="1.1" id="Layer_1" xmlns="http://www.w3.org/2000/svg" xmlns:xlink="http://www.w3.org/1999/xlink" x="0px" y="0px"
	 width="100%" viewBox="0 0 2392 2400" enable-background="new 0 0 2392 2400" xml:space="preserve">
<path fill="#FEFEFE" opacity="1.000000" stroke="none" 
	d="
M1.999993,756.000000 
	C2.000000,504.810028 2.000000,253.620026 2.000000,2.000000 
	C244.051483,2.000000 486.103241,2.000000 728.565796,2.445279 
	C724.191467,5.889661 719.224854,8.637174 714.653503,11.932786 
	C697.750793,24.118416 678.782715,30.395895 658.195740,32.312061 
	C653.004028,32.795288 647.831177,33.481483 642.796143,34.057648 
	C631.126648,79.302307 619.676758,123.695694 608.157166,168.359344 
	C628.974487,177.605927 642.166199,192.324966 644.251648,215.187607 
	C646.364502,238.350662 635.881165,255.495132 616.952698,268.388000 
	C667.413269,379.167084 717.587402,489.317322 767.686523,599.302856 
	C798.398682,592.639099 826.664978,616.720093 813.199585,654.472107 
	C815.402100,656.190979 817.677795,658.075623 820.061646,659.811584 
	C871.497314,697.265686 922.926758,734.728333 974.402161,772.127747 
	C988.670654,782.494568 1003.082581,792.663818 1017.769165,803.335327 
	C1049.998291,827.072693 1081.886963,850.398560 1113.820557,873.757324 
	C1126.011353,862.330383 1139.426392,859.613037 1154.864624,863.780396 
	C1165.038208,843.247620 1175.054932,823.031677 1185.536011,802.197327 
	C1217.176147,739.808289 1248.351807,678.037720 1279.438721,616.442749 
	C1251.687988,592.640137 1260.755127,552.779175 1298.372681,545.698059 
	C1300.203979,513.408936 1302.044800,480.950684 1303.901123,448.218964 
	C1288.595581,446.022766 1274.434448,443.970398 1260.267090,441.961792 
	C1220.705688,436.353058 1181.140015,430.774841 1141.579346,425.161530 
	C1096.416138,418.753265 1051.257202,412.316528 1006.095154,405.900665 
	C996.205383,404.495697 986.307129,403.149658 976.419922,401.727264 
	C973.257507,401.272308 969.937561,400.068329 971.028137,396.313110 
	C971.472290,394.783783 975.081604,393.343964 977.263489,393.325104 
	C981.552307,393.287994 985.855774,394.232605 990.143005,394.842560 
	C1034.972168,401.220612 1079.799438,407.611664 1124.626953,414.001495 
	C1164.838501,419.733307 1205.046875,425.488464 1245.262451,431.192657 
	C1264.599243,433.935364 1283.949219,436.584290 1304.373779,439.425995 
	C1306.991821,393.276215 1309.568359,347.860748 1312.144165,302.456818 
	C1288.142578,298.891907 1270.938232,287.649506 1263.493408,265.039917 
	C1254.479980,237.666199 1264.936035,216.448441 1287.114624,199.758942 
	C1271.770020,167.682343 1256.706665,136.193695 1241.464600,104.331490 
	C1235.982544,104.331490 1230.670898,104.094696 1225.386841,104.375313 
	C1208.660522,105.263580 1193.787598,100.499687 1180.994385,89.767204 
	C1169.913940,80.471565 1157.170776,79.489082 1144.268555,83.232300 
	C1119.299072,90.476440 1101.367676,106.236801 1094.308716,131.639954 
	C1090.528564,145.243637 1089.757080,159.686966 1087.680298,173.759109 
	C1086.328003,182.922119 1085.877930,192.308807 1083.565552,201.216766 
	C1080.666016,212.385941 1071.713379,215.319000 1061.871704,209.379410 
	C1057.602417,206.802856 1053.478394,203.981796 1049.174194,201.467346 
	C1032.514648,191.735352 1014.717407,188.265823 995.565796,191.434662 
	C989.089417,192.506241 982.343140,193.594528 975.908447,192.908768 
	C964.331116,191.674942 955.770569,184.882431 949.609192,175.120255 
	C939.231812,158.678314 924.249878,151.436661 904.972961,152.299210 
	C886.717529,153.116074 868.446350,154.287262 850.188843,154.178299 
	C825.823242,154.032883 801.848389,150.471436 778.978088,141.587967 
	C774.114807,139.698944 769.360596,136.942596 765.329590,133.641388 
	C759.912720,129.205276 759.788574,125.472641 764.040283,119.933632 
	C766.456238,116.786156 769.493225,114.115868 772.246277,111.226639 
	C782.861938,100.086166 788.098938,86.816742 787.627197,71.438919 
	C787.332703,61.838253 783.126160,56.137722 773.803284,53.168644 
	C764.753723,50.286594 760.144897,44.578308 759.583923,35.020382 
	C758.786194,21.428646 752.951172,10.296328 742.000000,2.000000 
	C1292.518433,2.000000 1843.036987,2.000000 2394.000000,2.000000 
	C2394.000000,498.051575 2394.000000,994.103333 2393.389648,1490.681152 
	C2389.362793,1480.098511 2383.652832,1470.301880 2375.503662,1460.000244 
	C2360.278809,1506.608276 2345.513916,1551.808594 2330.590576,1597.493408 
	C2334.117432,1599.331177 2337.007812,1600.837402 2340.209717,1602.916260 
	C2359.453613,1617.549683 2367.489502,1636.258179 2362.457275,1659.353760 
	C2356.617676,1686.153809 2338.096191,1699.295776 2311.089600,1703.028320 
	C2307.948975,1767.092651 2304.810059,1831.121216 2301.680420,1894.960815 
	C2302.950928,1895.276367 2303.284668,1895.452759 2303.595215,1895.418823 
	C2304.561279,1895.313110 2305.550293,1895.233887 2306.474609,1894.957764 
	C2335.673828,1886.239380 2353.742676,1866.670776 2362.149902,1837.728516 
	C2369.690674,1811.768921 2371.201416,1784.912598 2373.583984,1758.224731 
	C2375.409912,1737.772217 2377.113037,1717.253418 2377.482666,1696.738892 
	C2378.051025,1665.169922 2377.429932,1633.579712 2377.482178,1601.085205 
	C2377.035645,1586.082397 2378.435791,1572.370728 2383.947266,1559.148071 
	C2386.840820,1552.206421 2386.291504,1544.922241 2383.888184,1537.713989 
	C2377.831543,1519.550293 2377.907227,1519.522583 2393.061279,1507.745239 
	C2393.215332,1507.625610 2393.680176,1507.906250 2394.000000,1508.000000 
	C2394.000000,1805.851196 2394.000000,2103.702393 2394.000000,2402.000000 
	C2127.948486,2402.000000 1861.896729,2402.000000 1595.237305,2401.337402 
	C1606.187622,2395.643555 1618.151733,2391.370605 1629.228516,2385.440186 
	C1664.594727,2366.505127 1701.150879,2351.146973 1740.904297,2344.044922 
	C1754.379150,2341.637695 1766.940552,2336.520996 1778.688354,2329.131348 
	C1798.947510,2316.387451 1814.471436,2299.107666 1825.771118,2278.510010 
	C1847.838989,2238.283936 1869.035034,2197.573242 1890.132935,2156.825684 
	C1895.885132,2145.716309 1900.002075,2133.760498 1904.876343,2122.176270 
	C1811.570801,2040.988525 1719.094727,1960.522461 1626.881836,1880.285400 
	C1620.122681,1883.647461 1613.991577,1886.697266 1607.210205,1890.070557 
	C1611.774414,1974.636963 1616.347046,2059.358154 1620.902344,2143.755859 
	C1646.884399,2151.274170 1653.094360,2154.363037 1661.527954,2164.684814 
	C1671.774048,2177.225098 1675.839233,2191.735352 1673.437500,2207.673096 
	C1671.380737,2221.322021 1664.875000,2232.806396 1654.033936,2241.582764 
	C1640.228149,2252.759033 1624.337280,2255.737061 1606.674683,2252.725342 
	C1585.680054,2300.138916 1564.819336,2347.249756 1543.764648,2394.798584 
	C1549.449585,2397.320312 1554.724854,2399.660156 1560.000000,2402.000000 
	C1040.804810,2402.000000 521.609497,2402.000000 2.000000,2402.000000 
	C2.000000,1862.615112 2.000000,1323.230103 2.764083,782.918396 
	C4.264294,783.264221 5.191607,784.464539 5.703161,785.821655 
	C7.826860,791.455627 9.825055,797.136841 11.941196,803.462891 
	C17.019567,811.517639 21.323803,819.528320 27.174963,826.177673 
	C40.408276,841.216248 45.571022,858.835876 46.356312,878.298340 
	C46.964382,893.368530 44.979610,908.099609 41.350010,922.687561 
	C38.306927,934.918213 35.042934,947.101318 35.601852,959.940125 
	C36.027977,969.728516 39.163723,978.348022 46.472511,984.789734 
	C51.393665,989.127075 57.113850,992.646301 62.769810,996.043274 
	C74.928261,1003.345764 80.776039,1014.236755 81.626488,1028.047729 
	C81.952667,1033.344727 81.571121,1038.682373 81.802193,1043.988647 
	C82.413078,1058.017212 89.223747,1067.732910 102.354698,1072.926758 
	C122.672035,1080.963257 142.982956,1089.015991 164.108490,1097.383301 
	C185.857147,1057.211914 207.969574,1016.368530 230.112350,975.469177 
	C210.214325,960.249939 201.472244,940.863647 207.199585,917.125793 
	C213.931747,889.223389 233.989944,876.445557 261.968201,874.448181 
	C263.088776,865.744690 264.279633,857.529297 265.179626,849.282104 
	C266.875427,833.742371 268.403564,818.184204 270.331512,801.848511 
	C271.260315,796.109863 271.862305,791.156738 272.457123,786.202759 
	C280.193390,721.768677 287.958618,657.338196 295.655151,592.899353 
	C302.325562,537.051514 308.933899,481.196136 315.527191,425.339050 
	C316.494934,417.140503 317.227325,408.914154 317.843536,402.897675 
	C308.564941,395.876862 300.746765,389.961121 291.849274,383.228668 
	C289.728149,384.059448 286.059082,385.442963 282.430603,386.925903 
	C243.329880,402.906281 204.299103,419.061401 165.075409,434.733734 
	C158.718826,437.273590 154.970184,440.952332 152.059082,446.997955 
	C139.765900,472.527863 122.005173,492.809601 96.200165,505.895813 
	C76.643654,515.813293 63.389969,531.746399 58.139568,553.380615 
	C51.882645,579.162231 46.817513,605.250000 39.981888,630.870483 
	C28.949844,672.219604 16.906569,713.299194 5.158779,754.455017 
	C4.943534,755.209106 3.089418,755.495422 1.999993,756.000000 
M2069.945068,804.024170 
	C2084.168457,823.009033 2106.635254,822.443054 2120.023926,801.473938 
	C2120.843262,798.961121 2121.963867,796.502869 2122.430664,793.926147 
	C2124.747559,781.138855 2118.671387,768.898132 2107.292480,763.056396 
	C2095.946533,757.231628 2082.253662,759.596130 2073.408936,768.907410 
	C2064.463135,778.325195 2063.095703,790.634766 2069.945068,804.024170 
M2280.010254,1602.192139 
	C2292.920410,1593.826904 2307.283203,1592.641846 2321.514893,1594.516113 
	C2322.492188,1593.153198 2323.039551,1592.673340 2323.234375,1592.078003 
	C2338.224854,1546.265137 2353.222656,1500.454468 2368.042725,1454.586304 
	C2368.742920,1452.419189 2368.743164,1449.098022 2367.538818,1447.398926 
	C2361.211426,1438.471680 2354.619141,1429.704712 2347.638184,1421.280518 
	C2344.511963,1417.508179 2340.439453,1414.174316 2333.653809,1416.796509 
	C2333.653809,1421.437012 2333.843018,1426.387573 2333.616943,1431.319092 
	C2333.035645,1444.005127 2328.985107,1454.353638 2316.316162,1460.232056 
	C2304.573730,1465.680298 2300.287109,1475.400146 2302.953613,1489.224609 
	C2306.245361,1506.294067 2300.832031,1519.312256 2285.904785,1528.060425 
	C2276.455322,1533.598267 2266.506836,1538.285889 2257.067383,1543.839600 
	C2248.215820,1549.047119 2238.878174,1553.925171 2231.295654,1560.678711 
	C2219.259033,1571.399414 2211.185303,1584.610107 2214.815674,1603.449097 
	C2217.263184,1610.676025 2219.569824,1617.954346 2222.184082,1625.120361 
	C2231.416748,1650.428223 2232.699707,1676.556274 2228.602539,1702.769043 
	C2225.998535,1719.427856 2221.099121,1735.736084 2217.060303,1752.160156 
	C2212.380127,1771.192871 2212.803711,1789.761108 2222.416016,1807.278931 
	C2232.649658,1825.928833 2242.993408,1844.532959 2253.892334,1862.797119 
	C2259.314453,1871.883423 2265.632812,1880.540527 2272.395752,1888.686035 
	C2277.420166,1894.737305 2284.410400,1897.693604 2293.110352,1895.376587 
	C2296.254395,1830.928955 2299.382812,1766.799316 2302.509521,1702.702637 
	C2299.458496,1701.754639 2297.260986,1701.043091 2295.046387,1700.388184 
	C2268.871094,1692.644287 2253.350342,1669.949341 2255.503418,1642.930298 
	C2256.869873,1625.781494 2265.836914,1613.151489 2280.010254,1602.192139 
M1725.727539,1443.334961 
	C1725.473389,1442.782593 1725.043091,1442.485840 1723.959229,1441.043823 
	C1723.380615,1438.171387 1722.802002,1435.299072 1723.607056,1432.680664 
	C1782.887329,1454.250000 1842.167603,1475.819336 1902.162354,1497.648682 
	C1908.513794,1485.557129 1918.744019,1479.363281 1931.143921,1476.823364 
	C1930.199097,1326.484741 1929.260132,1177.075439 1928.319092,1027.313965 
	C1911.820679,1024.157715 1900.694824,1015.411682 1896.383057,999.864502 
	C1892.089844,984.384277 1897.305664,971.136475 1908.657715,960.065430 
	C1906.993042,957.315430 1905.650635,955.048767 1904.261963,952.810730 
	C1880.225830,914.074524 1856.220459,875.319214 1832.121216,836.622314 
	C1824.927612,825.071045 1817.468140,813.685303 1809.873291,800.812622 
	C1752.506226,708.352478 1695.139038,615.892395 1637.945801,523.712708 
	C1630.794922,524.988525 1624.698486,526.076172 1618.635620,527.157837 
	C1617.011108,535.825867 1615.481689,543.999023 1613.947266,552.171265 
	C1601.603516,617.911438 1589.209106,683.642090 1576.947632,749.397583 
	C1573.657104,767.044495 1570.771240,784.766724 1566.843750,803.663513 
	C1566.131104,807.199890 1565.331909,810.721436 1564.720947,814.275330 
	C1562.387329,827.850830 1560.114380,841.436768 1556.599365,855.272766 
	C1553.790161,855.962830 1550.980957,856.652893 1548.235840,855.832520 
	C1551.389648,838.104370 1554.543457,820.376221 1558.311157,801.094360 
	C1558.719971,799.480347 1559.218262,797.883179 1559.524536,796.249939 
	C1574.857544,714.505188 1590.184692,632.759399 1605.476929,551.007080 
	C1607.110840,542.271851 1608.532227,533.496887 1610.032715,524.852295 
	C1593.008667,518.005493 1584.808105,505.696228 1583.478516,487.853302 
	C1493.205078,475.042084 1403.168457,462.264496 1312.428833,449.387146 
	C1310.590942,482.991364 1308.835571,515.087463 1307.091797,546.973328 
	C1324.218262,551.780579 1334.684814,561.731201 1337.488037,578.114258 
	C1340.296631,594.527954 1332.921143,607.135803 1320.024048,616.913147 
	C1339.218994,659.527039 1358.158691,701.697815 1377.210938,743.817749 
	C1386.114502,763.501221 1395.235229,783.086304 1404.368042,804.051819 
	C1416.221802,830.494141 1428.075562,856.936523 1438.467529,883.820129 
	C1435.975830,884.077759 1433.484253,884.335388 1430.295044,883.151306 
	C1424.760010,870.761108 1419.314819,858.329834 1413.666626,845.991394 
	C1406.924316,831.262573 1400.008179,816.613342 1393.041016,800.368958 
	C1366.053589,740.354492 1339.066284,680.340027 1312.354858,620.939331 
	C1303.355591,620.939331 1295.513916,620.939331 1287.093262,620.939331 
	C1285.775879,623.361633 1284.122192,626.216553 1282.638916,629.157349 
	C1261.357910,671.349731 1240.051025,713.529175 1218.861206,755.767456 
	C1211.115723,771.206848 1203.660889,786.792236 1195.105347,803.248901 
	C1184.306519,824.525146 1173.507690,845.801453 1162.392090,867.701843 
	C1176.518921,878.263977 1181.194336,892.384949 1178.255737,909.128845 
	C1180.771851,910.234436 1182.865845,911.221497 1185.009155,912.086487 
	C1236.135498,932.719971 1287.289551,953.285156 1338.386963,973.990051 
	C1359.274414,982.453674 1380.041260,991.214783 1399.308350,1000.362976 
	C1395.158691,1001.294434 1391.008911,1002.225891 1385.459839,1002.335632 
	C1315.244751,973.998291 1245.029663,945.661011 1175.174561,917.468933 
	C1153.363892,944.043091 1129.327515,943.289612 1106.818115,915.848633 
	C1049.270264,935.651611 991.508362,955.528198 933.393738,975.526184 
	C935.159668,987.364563 932.187744,997.671448 926.141235,1007.254028 
	C1003.205627,1083.784424 1079.773804,1159.822021 1156.221069,1235.739502 
	C1184.686890,1217.723633 1212.831787,1219.680420 1232.054688,1240.559204 
	C1249.888550,1259.929321 1251.318726,1289.357178 1235.449463,1310.409302 
	C1218.234619,1333.246460 1190.509888,1337.710938 1159.574707,1322.141113 
	C1132.055176,1354.245850 1104.407837,1386.499634 1076.595581,1418.945923 
	C1090.001831,1433.483032 1102.414429,1447.742310 1111.166748,1464.800781 
	C1115.865356,1473.958740 1120.949219,1482.951416 1126.378906,1491.695923 
	C1149.333374,1528.664673 1172.483154,1565.512329 1195.748657,1603.878296 
	C1204.626343,1623.092041 1205.661743,1642.767090 1199.611694,1663.006470 
	C1195.144409,1677.951416 1190.776123,1692.937866 1186.897705,1708.042969 
	C1184.128906,1718.826904 1182.245972,1729.838379 1179.798828,1741.557251 
	C1212.490723,1744.036011 1243.912842,1746.418579 1275.164307,1748.788208 
	C1282.953247,1725.569336 1298.732666,1716.452026 1321.728271,1718.936157 
	C1324.219727,1712.344482 1326.598267,1706.141846 1328.911865,1699.915283 
	C1340.958496,1667.493408 1352.988770,1635.065308 1365.816040,1601.479736 
	C1375.915894,1574.530762 1385.936890,1547.552002 1396.141479,1520.642700 
	C1403.865845,1500.273804 1411.824463,1479.993774 1420.131958,1461.245972 
	C1421.120361,1465.532471 1422.108765,1469.818970 1422.384155,1475.503418 
	C1412.953857,1500.569336 1403.450195,1525.608154 1394.118530,1550.710938 
	C1387.789429,1567.736694 1381.701904,1584.852295 1374.469604,1602.859619 
	C1359.611206,1642.660645 1344.752808,1682.461792 1329.809082,1722.491211 
	C1345.766357,1732.061523 1351.399170,1746.158081 1349.883423,1763.897095 
	C1422.351562,1787.970825 1494.465576,1811.927002 1566.727173,1835.932129 
	C1573.284546,1823.295288 1583.461914,1816.961304 1596.153198,1814.219116 
	C1596.319214,1811.389282 1596.550171,1809.097046 1596.573975,1806.802734 
	C1597.008667,1764.845337 1597.518677,1722.888428 1597.796875,1680.930054 
	C1597.971191,1654.631592 1597.789062,1628.330688 1598.131348,1600.176514 
	C1598.162964,1585.510010 1598.194458,1570.843384 1599.448853,1555.741333 
	C1601.946167,1555.196655 1604.443481,1554.652100 1606.993286,1555.959595 
	C1607.026611,1571.280518 1607.059814,1586.601318 1606.623169,1603.750000 
	C1606.623169,1673.925781 1606.623169,1744.101440 1606.623169,1814.220703 
	C1634.694458,1821.634888 1645.879028,1847.050049 1632.305420,1873.477905 
	C1723.578613,1952.901489 1815.003296,2032.457031 1907.401489,2112.859619 
	C1909.192261,2106.060791 1910.851318,2100.472168 1912.125610,2094.797119 
	C1916.978027,2073.187744 1916.425659,2051.211670 1916.318848,2029.277100 
	C1916.215576,2008.056519 1921.754639,1988.422974 1934.234131,1971.289429 
	C1940.243652,1963.038940 1947.906982,1955.971924 1954.986572,1948.526001 
	C1975.299072,1927.162598 1979.450439,1903.828247 1967.296265,1877.138916 
	C1964.267334,1870.487915 1960.745361,1864.047974 1957.205688,1857.645996 
	C1949.156128,1843.087646 1940.984497,1828.577271 1937.247070,1812.159058 
	C1931.869873,1788.539307 1935.336548,1766.631226 1951.041504,1747.588867 
	C1956.740601,1740.678711 1962.890137,1733.998169 1969.610107,1728.096436 
	C1999.899780,1701.494385 2025.581177,1671.226196 2044.335205,1635.402710 
	C2050.015625,1624.551880 2054.914795,1613.292114 2061.211426,1601.226807 
	C2063.778809,1594.756470 2066.608887,1588.376099 2068.866211,1581.799316 
	C2076.450928,1559.701294 2080.983643,1537.162842 2079.938477,1513.554199 
	C2078.754150,1486.806641 2071.160645,1461.861572 2058.783936,1438.555786 
	C2047.118164,1416.588379 2034.032715,1395.357910 2021.158203,1374.053223 
	C1999.946045,1338.950928 1980.487061,1303.158813 1975.076050,1261.645996 
	C1971.172363,1231.696655 1972.999390,1202.631958 1989.713501,1176.143188 
	C1997.687378,1163.506226 2005.530518,1150.786621 2013.424927,1138.099487 
	C2031.674072,1108.771362 2050.601807,1079.838989 2068.008301,1050.018799 
	C2095.475342,1002.963196 2120.044434,954.328491 2141.866943,904.407288 
	C2156.474121,870.992065 2169.593750,836.926697 2184.039062,802.204285 
	C2187.429443,792.432800 2190.820068,782.661316 2194.731934,771.387390 
	C2172.672119,776.176514 2152.442871,780.568237 2132.507324,784.896240 
	C2131.541748,791.247925 2130.699707,796.785767 2128.941406,803.244629 
	C2124.727783,812.369202 2118.263184,819.281616 2108.938965,823.261963 
	C2097.124268,828.305603 2085.566895,826.452332 2073.898682,820.968811 
	C2035.654907,868.476196 1997.673218,915.658142 1959.764160,962.749695 
	C1979.187622,988.905273 1969.728027,1018.907349 1936.974609,1028.024048 
	C1937.915771,1177.599854 1938.858521,1327.410889 1939.799316,1476.931152 
	C1963.847412,1482.982666 1976.048462,1499.881714 1972.539185,1520.687622 
	C1970.903809,1530.384033 1966.217773,1538.160645 1958.565063,1544.117920 
	C1948.433960,1552.004395 1936.859131,1553.446167 1923.946899,1550.499878 
	C1916.416260,1567.864624 1909.026123,1584.905273 1900.548096,1602.788086 
	C1877.625366,1653.685303 1854.704468,1704.583374 1831.772949,1755.476685 
	C1830.954224,1757.293823 1830.424316,1759.510254 1829.042725,1760.724731 
	C1827.802612,1761.814941 1825.211304,1762.590820 1823.888672,1761.999878 
	C1822.707642,1761.472290 1821.715576,1758.779419 1821.943481,1757.234131 
	C1822.319580,1754.682739 1823.653687,1752.244507 1824.742554,1749.830078 
	C1836.216675,1724.387329 1847.792480,1698.990356 1859.198730,1673.517334 
	C1869.782593,1649.881104 1880.194580,1626.168091 1891.669067,1601.504272 
	C1899.828125,1583.407104 1907.987183,1565.309937 1916.057983,1547.408691 
	C1900.333984,1532.665771 1898.816895,1529.133301 1897.996460,1505.717529 
	C1896.955566,1505.216431 1895.823608,1504.546387 1894.608643,1504.104492 
	C1840.964111,1484.600708 1787.316528,1465.105103 1733.647217,1445.669800 
	C1731.198486,1444.782959 1728.545654,1444.459595 1726.000610,1444.035889 
	C1726.000610,1444.035889 1726.163086,1444.031372 1725.727539,1443.334961 
M2058.495850,800.568787 
	C2058.186279,798.932739 2057.852783,797.300781 2057.570801,795.660034 
	C2054.336914,776.840881 2063.989990,759.939819 2081.593018,753.586548 
	C2098.625977,747.439087 2117.083008,754.112976 2126.578857,769.872864 
	C2127.764648,771.840576 2128.853516,773.866516 2130.338379,776.484436 
	C2152.768311,771.637207 2175.119873,766.806885 2197.778076,761.910339 
	C2199.426514,756.660034 2201.052246,751.636536 2202.582520,746.584229 
	C2210.190674,721.468872 2217.401367,696.183533 2219.666748,669.971497 
	C2220.684082,658.200195 2220.124023,645.994385 2218.138184,634.351074 
	C2216.378418,624.033508 2211.440918,621.705750 2200.874512,621.650513 
	C2190.921143,621.598450 2181.776855,625.072815 2173.263428,629.394592 
	C2150.166748,641.119812 2127.388184,653.478760 2104.601074,665.804443 
	C2081.797852,678.138794 2059.284912,691.085693 2034.399536,698.949829 
	C2022.975830,702.559814 2011.499878,704.823120 1999.257812,702.055725 
	C1977.470093,697.130554 1965.267090,685.999695 1962.703613,664.484741 
	C1961.222778,652.055908 1954.717529,644.144348 1944.995239,638.483582 
	C1936.442749,633.503845 1927.003296,630.052917 1917.978394,625.877441 
	C1900.818359,617.938110 1883.244263,610.759766 1866.641968,601.785522 
	C1849.068481,592.286316 1835.543213,577.999878 1826.339844,560.088989 
	C1822.399414,552.420532 1819.069580,544.421143 1815.763428,536.447205 
	C1806.251099,513.504639 1790.267334,498.171448 1765.770142,491.773926 
	C1759.924194,490.247223 1754.339966,486.501770 1749.467285,482.708282 
	C1738.164917,473.908997 1733.052490,461.330322 1729.849487,447.768250 
	C1726.955811,435.515076 1724.664673,423.028412 1720.591064,411.165619 
	C1713.892700,391.659851 1701.224121,376.853638 1681.691284,367.230865 
	C1667.947998,397.384399 1654.497437,426.895630 1641.197510,456.076355 
	C1663.352783,476.572266 1664.401123,493.846985 1645.526489,519.034729 
	C1646.916992,521.431152 1648.330688,524.020142 1649.884033,526.522400 
	C1705.726685,616.477600 1761.578857,706.426758 1817.455566,796.360779 
	C1818.843750,798.595154 1820.524170,800.648010 1822.338623,804.049072 
	C1852.858154,853.292236 1883.372437,902.538696 1913.926147,951.760681 
	C1914.756714,953.098816 1916.012207,954.173096 1917.145020,955.455750 
	C1929.336548,950.363220 1940.879028,951.656311 1952.523560,957.890564 
	C1990.889404,910.224426 2029.047974,862.815857 2066.982666,815.685486 
	C2063.926025,810.715332 2061.324219,806.484436 2058.495850,800.568787 
M279.416962,803.962402 
	C276.497070,827.707153 273.577148,851.451965 270.600067,875.661865 
	C286.086578,879.983093 298.500488,887.829529 306.566864,901.438293 
	C314.634674,915.049500 316.346252,929.558594 312.114227,944.743408 
	C308.570526,957.458557 301.113312,967.486389 290.173553,974.728394 
	C273.755951,985.596741 256.072937,986.491577 237.777359,979.561951 
	C215.332138,1021.026123 193.346878,1061.640625 171.282104,1102.401978 
	C174.129379,1104.223633 176.335449,1105.661011 178.566391,1107.058472 
	C203.634521,1122.762085 223.424622,1142.225342 228.659851,1173.225098 
	C229.628815,1178.962524 234.009903,1184.615356 238.038086,1189.243652 
	C246.798721,1199.309692 259.025848,1202.379517 271.719727,1204.713501 
	C277.518738,1205.779785 281.494507,1205.217163 286.059357,1201.322998 
	C395.086853,1108.312012 504.244629,1015.453796 613.364563,922.551208 
	C615.351318,920.859680 617.165771,918.965759 618.966797,917.255432 
	C603.895935,889.593567 621.285583,852.438293 664.223755,859.970764 
	C673.313416,841.033752 682.503113,821.888428 692.688538,801.632080 
	C714.755493,756.965149 736.822449,712.298218 758.951660,667.505310 
	C751.507019,661.314514 745.031128,655.047058 743.798096,646.087830 
	C742.607971,637.440491 743.098511,628.561768 742.820618,618.717102 
	C615.019897,542.001099 486.103058,464.615082 356.940369,387.081512 
	C348.713867,396.712128 338.389771,400.816132 326.899872,402.075348 
	C325.897400,410.153717 324.957092,417.396851 324.105377,424.650391 
	C319.835022,461.018799 315.621765,497.393860 311.323090,533.758911 
	C306.907379,571.114136 302.417114,608.460571 297.957886,645.810669 
	C293.577515,682.500000 289.122925,719.180725 284.847809,755.882324 
	C283.039795,771.404053 281.607391,786.969604 279.416962,803.962402 
M999.141907,800.957581 
	C935.190063,754.398438 871.238281,707.839294 808.634216,662.261353 
	C800.871155,666.007385 794.926025,670.239319 788.370422,671.666260 
	C781.449768,673.172607 773.946838,672.004028 766.419739,672.004028 
	C757.241211,690.568970 748.037903,709.009766 738.990540,727.526855 
	C726.880737,752.311646 714.891846,777.155518 702.037048,802.953796 
	C691.830322,823.431274 681.623596,843.908691 671.547363,864.124268 
	C689.873291,881.884583 693.307312,901.564392 681.400208,918.097900 
	C675.942078,925.676819 668.604309,930.440674 659.468872,932.768372 
	C646.421509,936.092590 635.403564,931.445801 624.882019,924.173706 
	C513.443787,1019.017700 402.350677,1113.567871 291.149353,1208.210205 
	C300.910614,1213.505127 310.124115,1217.913940 318.707184,1223.323120 
	C327.406158,1228.805420 335.422760,1235.360474 343.847961,1241.289795 
	C351.992920,1247.021729 359.980103,1253.066162 368.565735,1258.064453 
	C384.450287,1267.311401 401.512726,1271.271118 420.082153,1268.435303 
	C433.276031,1266.420410 443.386749,1259.118286 453.154633,1251.063843 
	C481.206360,1227.933228 513.746643,1219.195679 549.522827,1220.272339 
	C559.720215,1220.579224 569.954895,1220.751587 580.136292,1220.250122 
	C600.587463,1219.243042 619.314636,1212.690186 635.264160,1199.818481 
	C656.558838,1182.632935 679.357178,1167.805542 702.992798,1154.146851 
	C720.837952,1143.834595 738.543701,1133.154297 758.417358,1127.151367 
	C766.272827,1124.778442 774.667786,1122.356445 782.686218,1122.734497 
	C800.281799,1123.563843 814.240479,1131.976929 823.710632,1147.246460 
	C827.912781,1154.021973 832.385315,1160.629272 836.676392,1167.350342 
	C844.449768,1179.525757 859.546570,1184.965942 876.849243,1176.433350 
	C880.873779,1124.785767 884.928101,1072.755615 888.971436,1020.866272 
	C870.053650,1014.980103 859.793457,1003.025940 858.745911,984.257812 
	C857.908447,969.254028 867.919495,954.356750 882.196228,949.046387 
	C903.339783,941.181702 918.909119,949.801331 931.009094,967.200012 
	C989.200195,947.162720 1046.932495,927.283325 1103.003662,907.976013 
	C1104.632080,897.656616 1105.961792,889.229919 1107.415527,880.017761 
	C1105.508789,878.547363 1102.952026,876.476257 1100.295532,874.542236 
	C1070.667847,852.971924 1041.035400,831.408264 1011.372864,809.886108 
	C1007.618469,807.161987 1003.684021,804.685974 999.141907,800.957581 
M1570.204956,2222.343506 
	C1564.043701,2207.881836 1563.425171,2193.255371 1569.424683,2178.643066 
	C1577.256348,2159.569092 1592.480103,2149.396484 1612.383545,2144.930908 
	C1607.751099,2059.496582 1603.156128,1974.751709 1598.577271,1890.305176 
	C1569.760986,1882.826782 1562.608521,1867.282959 1563.386963,1843.990845 
	C1491.464111,1820.081055 1419.296265,1796.089722 1346.888794,1772.018799 
	C1337.568726,1787.690674 1324.460815,1795.827271 1306.687500,1792.903931 
	C1287.532349,1789.753174 1277.615967,1776.921509 1274.591553,1757.485474 
	C1242.682617,1755.034790 1210.965576,1752.598755 1178.338257,1750.092896 
	C1177.264771,1760.464478 1176.562378,1770.003174 1175.232056,1779.453613 
	C1173.260010,1793.465088 1174.217285,1807.244873 1177.544800,1820.906250 
	C1181.901367,1838.791504 1191.616821,1853.839844 1203.207764,1867.710815 
	C1236.566650,1907.632080 1267.305176,1949.240112 1288.748413,1997.044189 
	C1308.036499,2040.043945 1329.874023,2081.905273 1342.328003,2127.814941 
	C1349.655762,2154.827637 1365.460815,2175.606201 1392.215820,2187.755127 
	C1411.573120,2196.544678 1426.921265,2211.138428 1438.124512,2229.510010 
	C1449.625000,2248.369141 1463.432007,2265.310303 1479.192627,2280.754883 
	C1486.077881,2287.501709 1492.926392,2294.370117 1499.035278,2301.804688 
	C1507.172607,2311.708008 1510.077515,2323.563965 1509.406738,2336.291992 
	C1509.128296,2341.574951 1508.047607,2346.899414 1508.447754,2352.119385 
	C1509.851440,2370.428955 1521.024414,2381.804688 1536.639771,2391.186035 
	C1557.618652,2343.791504 1578.169434,2297.364502 1599.104248,2250.069336 
	C1586.424438,2244.222168 1576.922119,2235.708496 1570.204956,2222.343506 
M527.557861,479.411255 
	C601.452393,523.750793 675.346924,568.090332 749.419983,612.536987 
	C753.206970,608.980652 756.493225,605.894531 759.765808,602.821289 
	C709.271362,491.982605 659.103516,381.860840 609.032166,271.950775 
	C566.228516,282.688019 539.958191,255.067810 536.319824,227.587402 
	C534.252747,211.974960 538.226685,197.737793 548.336487,185.588364 
	C561.562500,169.693924 579.139832,164.316742 599.745300,166.188004 
	C611.073242,122.332268 622.267944,78.992531 633.456604,35.675964 
	C632.082764,35.272224 631.458984,34.874855 630.906860,34.957291 
	C596.615479,40.077183 563.421814,49.295048 531.075867,61.697216 
	C503.550476,72.251053 477.607422,85.466316 456.042480,106.075218 
	C447.858948,113.895966 439.951050,122.015083 431.585114,129.633102 
	C404.749664,154.069366 371.975189,166.633331 337.595428,175.590988 
	C320.534363,180.036270 303.315857,179.432587 286.529388,173.653625 
	C279.941559,171.385681 273.417664,168.801697 267.146454,165.777298 
	C259.217438,161.953354 248.308044,167.363129 245.537704,174.781174 
	C244.148895,178.499939 242.962067,182.306335 241.902466,186.133606 
	C238.454803,198.586578 235.999008,211.400864 231.490524,223.450897 
	C226.182526,237.637772 217.087967,249.367355 204.495392,258.511078 
	C197.879547,263.315002 191.599594,269.336517 187.027145,276.070587 
	C165.786057,307.353302 158.756699,342.197540 163.444000,379.475433 
	C165.023499,392.037079 166.279709,404.450562 162.644730,416.868469 
	C161.840988,419.614166 161.685364,422.549591 160.938110,427.236877 
	C205.045105,409.207031 247.654160,391.789520 290.432892,374.302673 
	C287.613983,355.355896 292.639313,340.271606 309.382599,331.109924 
	C322.856262,323.737274 336.538208,324.763153 348.915009,333.842896 
	C364.742188,345.453827 367.077667,361.480469 361.742493,379.834686 
	C416.760101,412.845428 471.552887,445.721313 527.557861,479.411255 
M1337.630615,297.029510 
	C1332.025757,298.921692 1326.420898,300.813904 1320.682861,302.751068 
	C1318.138794,348.852112 1315.615845,394.571777 1313.066162,440.774689 
	C1404.649414,453.758240 1494.796387,466.538177 1584.767456,479.293182 
	C1593.817871,455.643921 1610.998535,448.975952 1633.291992,452.405182 
	C1647.203247,421.907349 1660.837769,392.015869 1673.769043,363.666077 
	C1666.618286,355.794373 1660.021973,349.200897 1654.186768,341.991241 
	C1631.692139,314.197968 1614.014282,283.350067 1597.663818,251.688934 
	C1584.895752,226.964539 1581.777344,201.324860 1589.936646,174.459656 
	C1599.154297,144.110107 1591.197632,116.592056 1574.624634,91.135422 
	C1564.306152,75.286087 1553.624512,72.560638 1536.062134,79.147331 
	C1519.425415,85.386925 1502.672241,86.993629 1485.591309,81.052422 
	C1483.085571,80.180870 1480.535645,79.339035 1477.937378,78.846497 
	C1459.987305,75.443871 1443.536865,78.202156 1429.600708,90.925468 
	C1425.182251,94.959373 1420.974609,99.251816 1416.332520,103.008049 
	C1401.055664,115.369446 1384.682617,121.562172 1364.612915,114.560951 
	C1354.071167,110.883499 1342.665283,109.383308 1331.520752,107.814644 
	C1319.400269,106.108620 1307.150146,104.969589 1294.920776,104.485420 
	C1280.823486,103.927299 1266.687134,104.355721 1251.107300,104.355721 
	C1266.289551,136.055801 1280.718628,166.183029 1295.189575,196.397751 
	C1298.181396,195.619095 1300.069946,195.007034 1302.005127,194.643005 
	C1317.328613,191.760590 1331.899292,193.398010 1345.076294,202.339935 
	C1380.255493,226.212540 1375.995728,278.133209 1337.630615,297.029510 
M1095.432495,1187.558105 
	C1036.853760,1129.421631 978.274963,1071.285034 920.690674,1014.135376 
	C912.323364,1017.164429 905.504639,1019.632935 897.578186,1022.502441 
	C893.767029,1070.831421 889.892944,1119.957397 886.006531,1169.240601 
	C887.533508,1169.159546 887.895996,1169.238770 888.151489,1169.108521 
	C889.039551,1168.655151 889.957092,1168.216919 890.746094,1167.618408 
	C910.548157,1152.594604 931.476685,1152.978638 952.483948,1164.145020 
	C971.618347,1174.315918 986.306152,1188.613159 990.781250,1211.086792 
	C993.366211,1224.068604 991.548096,1236.815063 989.265320,1249.539673 
	C985.930115,1268.130005 981.604309,1286.551147 982.282898,1305.673584 
	C983.420044,1337.719849 994.553955,1363.804565 1024.404907,1379.510986 
	C1039.459229,1387.432251 1053.330566,1397.154175 1065.637451,1409.009521 
	C1067.019775,1410.341064 1068.909668,1411.145874 1070.830811,1412.364014 
	C1098.476562,1380.078247 1125.902100,1348.049561 1153.116455,1316.267578 
	C1133.190796,1291.371582 1132.869873,1266.833984 1149.727539,1242.372070 
	C1131.597656,1224.065430 1114.017334,1206.313721 1095.432495,1187.558105 
M1906.132812,977.924805 
	C1905.307861,981.795837 1903.863403,985.651489 1903.766357,989.540649 
	C1903.369385,1005.435242 1915.956909,1018.301331 1931.741699,1018.584717 
	C1947.527222,1018.868103 1960.628418,1006.631348 1961.397949,990.885681 
	C1962.147583,975.544250 1949.514282,961.638672 1933.867676,961.067444 
	C1921.821411,960.627686 1912.748047,965.958496 1906.132812,977.924805 
M1168.761230,908.905090 
	C1169.288452,905.980652 1170.183350,903.068420 1170.281128,900.129578 
	C1170.785034,884.993774 1159.990601,872.498352 1144.888306,870.475159 
	C1130.906128,868.602051 1117.117920,878.429077 1113.668823,892.725586 
	C1110.223267,907.007385 1117.958008,920.863464 1131.796753,926.409729 
	C1143.031250,930.912354 1161.409058,926.754883 1168.761230,908.905090 
M896.879883,1012.352966 
	C899.817688,1011.897522 902.888733,1011.842346 905.670166,1010.916931 
	C917.294678,1007.049072 925.436462,995.525879 925.315369,983.553528 
	C925.188965,971.063232 916.405334,959.475586 904.442444,956.017212 
	C892.160950,952.466736 879.085938,957.203613 872.186279,967.964417 
	C859.471252,987.794800 874.098145,1012.380127 896.879883,1012.352966 
M1641.003662,510.073059 
	C1643.513794,506.201874 1646.705811,502.606232 1648.402832,498.406525 
	C1653.014771,486.992706 1648.948853,473.772034 1639.149536,466.187775 
	C1629.133911,458.436157 1616.035767,457.892090 1605.536865,464.791504 
	C1595.267700,471.539978 1590.658325,484.412506 1593.517456,496.222931 
	C1597.637573,513.241333 1620.718628,526.360535 1641.003662,510.073059 
M1906.961914,1511.786377 
	C1907.253662,1515.073120 1907.141235,1518.457153 1907.905273,1521.630127 
	C1911.741699,1537.563965 1928.727417,1546.931763 1944.443359,1541.973267 
	C1960.089355,1537.036865 1968.515503,1519.518921 1962.602051,1504.221191 
	C1957.952637,1492.193604 1946.545898,1484.943481 1933.579102,1485.774292 
	C1920.180176,1486.632812 1910.928833,1495.241089 1906.961914,1511.786377 
M666.434570,872.044861 
	C664.342041,871.036072 662.328003,869.795166 660.144165,869.056213 
	C646.505249,864.441467 631.992493,870.361511 625.371094,883.131409 
	C618.518250,896.347656 622.445862,911.773315 634.795715,920.147095 
	C646.725525,928.235840 662.119202,926.454895 672.016907,915.840576 
	C683.927002,903.068481 682.212952,885.989563 666.434570,872.044861 
M802.366455,653.117065 
	C803.548401,651.119019 804.957092,649.219543 805.875366,647.106873 
	C811.715332,633.671692 806.533142,617.992920 793.949219,610.714111 
	C780.927307,603.182007 764.486572,606.853394 755.867004,619.218140 
	C747.434448,631.314819 749.358093,647.348450 760.337891,657.212402 
	C772.199768,667.868835 791.670532,666.597473 802.366455,653.117065 
M1341.581543,1755.199585 
	C1340.967285,1752.275513 1340.647461,1749.250977 1339.688721,1746.444458 
	C1334.899658,1732.424561 1319.885376,1724.534912 1305.161377,1728.139404 
	C1291.023438,1731.600342 1281.669678,1746.233521 1284.102661,1761.083374 
	C1286.483398,1775.612549 1300.241455,1785.880127 1315.175415,1784.690674 
	C1327.785767,1783.686157 1340.527588,1773.197144 1341.581543,1755.199585 
M1299.316162,613.027710 
	C1301.627563,612.801025 1303.978149,612.769531 1306.243896,612.315247 
	C1319.038086,609.750244 1328.517456,598.897766 1329.525513,585.805664 
	C1330.456909,573.708557 1322.343262,561.577759 1310.338623,557.119202 
	C1298.186646,552.605896 1284.217407,557.003784 1276.813965,567.875977 
	C1264.024780,586.657532 1276.656372,611.152161 1299.316162,613.027710 
M1587.641724,1826.165283 
	C1585.235352,1827.930786 1582.569214,1829.432861 1580.465942,1831.505981 
	C1569.750732,1842.068359 1569.102905,1859.058594 1578.812988,1870.466431 
	C1588.235107,1881.535889 1604.722900,1883.867798 1616.770752,1875.834473 
	C1629.256958,1867.509033 1633.328003,1850.994873 1626.053711,1837.958740 
	C1618.519531,1824.457397 1602.026245,1819.357788 1587.641724,1826.165283 
M308.792847,386.341766 
	C310.755585,387.581055 312.613129,389.044220 314.697968,390.023651 
	C329.362091,396.912506 346.810059,390.456299 353.361633,375.805206 
	C360.111908,360.709747 352.792358,343.109833 337.272919,337.119904 
	C322.234375,331.315552 305.366455,339.053986 299.898224,354.429291 
	C295.640594,366.400696 298.942932,376.615295 308.792847,386.341766 
M2321.225586,1628.318604 
	C2322.043945,1624.531494 2322.862305,1620.744263 2323.937256,1615.768433 
	C2311.539062,1616.268188 2301.140381,1619.990723 2289.894043,1623.181274 
	C2290.680176,1637.242065 2289.306152,1650.693604 2292.284912,1664.205078 
	C2297.344482,1663.446411 2301.185791,1662.870361 2305.601318,1662.208252 
	C2306.383057,1672.551392 2307.122559,1682.333740 2307.924072,1692.937744 
	C2316.481934,1681.059570 2332.596680,1648.141235 2333.582031,1640.421753 
	C2328.550293,1640.963989 2323.653809,1641.491577 2317.972168,1642.103760 
	C2319.122559,1636.931641 2319.910156,1633.390381 2321.225586,1628.318604 
M1626.730835,2229.845215 
	C1632.862427,2217.777100 1638.994141,2205.708984 1646.039062,2191.843506 
	C1638.765381,2192.519043 1633.809204,2192.979492 1628.469360,2193.475342 
	C1628.686768,2183.793945 1633.920288,2175.774414 1632.872803,2165.936279 
	C1621.458984,2168.864746 1610.987671,2171.551270 1600.234985,2174.310059 
	C1600.400269,2188.838867 1599.490234,2202.285889 1602.737305,2215.570557 
	C1607.515503,2214.941895 1611.336304,2214.439209 1615.676636,2213.868164 
	C1616.521484,2223.962402 1617.306641,2233.344971 1618.091919,2242.727783 
	C1618.660767,2242.875732 1619.229492,2243.023926 1619.798340,2243.172119 
	C1621.893066,2239.175537 1623.987915,2235.178955 1626.730835,2229.845215 
M1310.764404,262.620209 
	C1311.500000,272.375397 1312.235596,282.130585 1312.989746,292.131409 
	C1319.366089,284.911285 1337.933472,247.654816 1338.866943,239.972275 
	C1334.010986,240.532471 1329.291748,241.076874 1324.374756,241.644089 
	C1322.942139,231.999268 1330.340454,224.016571 1327.062012,214.392380 
	C1316.403320,217.116547 1306.235718,219.715179 1296.599854,222.177933 
	C1296.599854,236.668503 1296.599854,249.858444 1296.599854,263.792206 
	C1301.429443,263.107941 1305.283325,262.561951 1310.764404,262.620209 
M589.657776,264.327179 
	C598.517700,250.948792 613.625671,219.647491 614.500549,212.367157 
	C609.683167,212.968094 605.005127,213.551636 600.103271,214.163116 
	C598.626038,204.483185 605.392517,196.779373 602.832947,187.140732 
	C593.008545,189.550018 583.671570,191.771408 574.374817,194.149567 
	C569.972595,195.275681 570.469849,198.963196 570.613281,202.287811 
	C571.014893,211.599350 571.437805,220.910522 571.960083,230.215790 
	C572.064331,232.073669 572.646423,233.904724 573.088318,236.156387 
	C577.794373,235.615295 581.939758,235.138687 587.102295,234.545120 
	C587.532104,244.735413 587.935303,254.295883 589.657776,264.327179 
M264.980164,963.918945 
	C268.455353,957.106323 272.177673,950.405823 275.335358,943.449036 
	C278.405182,936.685669 283.381134,930.654541 284.286133,922.039124 
	C278.904724,922.630249 274.175079,923.149841 268.513153,923.771790 
	C270.477814,914.357544 272.244324,905.892761 274.309296,895.997742 
	C262.001617,898.975525 251.501617,901.515991 240.039948,904.289124 
	C240.791855,918.526184 241.498886,931.913147 242.218445,945.537415 
	C247.447983,944.949097 251.538376,944.488892 256.392822,943.942749 
	C257.108978,954.615601 257.753235,964.217041 258.543427,975.993408 
	C261.216431,970.992310 262.760529,968.103333 264.980164,963.918945 
M1173.890259,1289.950562 
	C1174.119141,1292.884277 1175.641357,1293.999756 1178.550171,1293.430054 
	C1181.628662,1292.827271 1184.733765,1292.359863 1188.835327,1291.661743 
	C1189.393311,1302.641479 1189.881470,1312.246338 1190.442017,1323.274780 
	C1199.992310,1308.213745 1215.378174,1276.664185 1216.462402,1269.966064 
	C1211.274902,1270.536621 1206.253174,1271.088867 1201.140625,1271.651245 
	C1200.782715,1261.909424 1206.868652,1253.989990 1205.022949,1244.278320 
	C1193.810181,1247.062744 1183.320557,1249.667725 1173.828857,1252.024780 
	C1173.828857,1265.056763 1173.828857,1276.628174 1173.890259,1289.950562 
z"/>
<path fill="#FE0304" opacity="1.000000" stroke="none" 
	d="
M1017.428711,802.923767 
	C1003.082581,792.663818 988.670654,782.494568 974.402161,772.127747 
	C922.926758,734.728333 871.497314,697.265686 820.061646,659.811584 
	C817.677795,658.075623 815.402100,656.190979 813.199585,654.472107 
	C826.664978,616.720093 798.398682,592.639099 767.686523,599.302856 
	C717.587402,489.317322 667.413269,379.167084 616.952698,268.388000 
	C635.881165,255.495132 646.364502,238.350662 644.251648,215.187607 
	C642.166199,192.324966 628.974487,177.605927 608.157166,168.359344 
	C619.676758,123.695694 631.126648,79.302307 642.796143,34.057648 
	C647.831177,33.481483 653.004028,32.795288 658.195740,32.312061 
	C678.782715,30.395895 697.750793,24.118416 714.653503,11.932786 
	C719.224854,8.637174 724.191467,5.889661 729.488281,2.445279 
	C733.428711,2.000000 736.857422,2.000000 741.143066,2.000000 
	C752.951172,10.296328 758.786194,21.428646 759.583923,35.020382 
	C760.144897,44.578308 764.753723,50.286594 773.803284,53.168644 
	C783.126160,56.137722 787.332703,61.838253 787.627197,71.438919 
	C788.098938,86.816742 782.861938,100.086166 772.246277,111.226639 
	C769.493225,114.115868 766.456238,116.786156 764.040283,119.933632 
	C759.788574,125.472641 759.912720,129.205276 765.329590,133.641388 
	C769.360596,136.942596 774.114807,139.698944 778.978088,141.587967 
	C801.848389,150.471436 825.823242,154.032883 850.188843,154.178299 
	C868.446350,154.287262 886.717529,153.116074 904.972961,152.299210 
	C924.249878,151.436661 939.231812,158.678314 949.609192,175.120255 
	C955.770569,184.882431 964.331116,191.674942 975.908447,192.908768 
	C982.343140,193.594528 989.089417,192.506241 995.565796,191.434662 
	C1014.717407,188.265823 1032.514648,191.735352 1049.174194,201.467346 
	C1053.478394,203.981796 1057.602417,206.802856 1061.871704,209.379410 
	C1071.713379,215.319000 1080.666016,212.385941 1083.565552,201.216766 
	C1085.877930,192.308807 1086.328003,182.922119 1087.680298,173.759109 
	C1089.757080,159.686966 1090.528564,145.243637 1094.308716,131.639954 
	C1101.367676,106.236801 1119.299072,90.476440 1144.268555,83.232300 
	C1157.170776,79.489082 1169.913940,80.471565 1180.994385,89.767204 
	C1193.787598,100.499687 1208.660522,105.263580 1225.386841,104.375313 
	C1230.670898,104.094696 1235.982544,104.331490 1241.464600,104.331490 
	C1256.706665,136.193695 1271.770020,167.682343 1287.114624,199.758942 
	C1264.936035,216.448441 1254.479980,237.666199 1263.493408,265.039917 
	C1270.938232,287.649506 1288.142578,298.891907 1312.144165,302.456818 
	C1309.568359,347.860748 1306.991821,393.276215 1304.373779,439.425995 
	C1283.949219,436.584290 1264.599243,433.935364 1245.262451,431.192657 
	C1205.046875,425.488464 1164.838501,419.733307 1124.626953,414.001495 
	C1079.799438,407.611664 1034.972168,401.220612 990.143005,394.842560 
	C985.855774,394.232605 981.552307,393.287994 977.263489,393.325104 
	C975.081604,393.343964 971.472290,394.783783 971.028137,396.313110 
	C969.937561,400.068329 973.257507,401.272308 976.419922,401.727264 
	C986.307129,403.149658 996.205383,404.495697 1006.095154,405.900665 
	C1051.257202,412.316528 1096.416138,418.753265 1141.579346,425.161530 
	C1181.140015,430.774841 1220.705688,436.353058 1260.267090,441.961792 
	C1274.434448,443.970398 1288.595581,446.022766 1303.901123,448.218964 
	C1302.044800,480.950684 1300.203979,513.408936 1298.372681,545.698059 
	C1260.755127,552.779175 1251.687988,592.640137 1279.438721,616.442749 
	C1248.351807,678.037720 1217.176147,739.808289 1184.665283,802.101379 
	C1129.686035,802.578552 1076.041992,802.529419 1022.397827,802.506531 
	C1020.741516,802.505859 1019.085083,802.778564 1017.428711,802.923767 
z"/>
<path fill="#FE0304" opacity="1.000000" stroke="none" 
	d="
M11.869310,802.800720 
	C9.825055,797.136841 7.826860,791.455627 5.703161,785.821655 
	C5.191607,784.464539 4.264294,783.264221 2.764083,781.995850 
	C2.000000,773.950928 2.000000,765.901794 1.999993,756.926392 
	C3.089418,755.495422 4.943534,755.209106 5.158779,754.455017 
	C16.906569,713.299194 28.949844,672.219604 39.981888,630.870483 
	C46.817513,605.250000 51.882645,579.162231 58.139568,553.380615 
	C63.389969,531.746399 76.643654,515.813293 96.200165,505.895813 
	C122.005173,492.809601 139.765900,472.527863 152.059082,446.997955 
	C154.970184,440.952332 158.718826,437.273590 165.075409,434.733734 
	C204.299103,419.061401 243.329880,402.906281 282.430603,386.925903 
	C286.059082,385.442963 289.728149,384.059448 291.849274,383.228668 
	C300.746765,389.961121 308.564941,395.876862 317.843536,402.897675 
	C317.227325,408.914154 316.494934,417.140503 315.527191,425.339050 
	C308.933899,481.196136 302.325562,537.051514 295.655151,592.899353 
	C287.958618,657.338196 280.193390,721.768677 272.457123,786.202759 
	C271.862305,791.156738 271.260315,796.109863 269.394470,801.804199 
	C185.362488,802.534668 102.597649,802.521545 19.832808,802.526001 
	C17.178305,802.526123 14.523808,802.705139 11.869310,802.800720 
z"/>
<path fill="#0F632F" opacity="1.000000" stroke="none" 
	d="
M1560.935181,2402.000000 
	C1554.724854,2399.660156 1549.449585,2397.320312 1543.764648,2394.798584 
	C1564.819336,2347.249756 1585.680054,2300.138916 1606.674683,2252.725342 
	C1624.337280,2255.737061 1640.228149,2252.759033 1654.033936,2241.582764 
	C1664.875000,2232.806396 1671.380737,2221.322021 1673.437500,2207.673096 
	C1675.839233,2191.735352 1671.774048,2177.225098 1661.527954,2164.684814 
	C1653.094360,2154.363037 1646.884399,2151.274170 1620.902344,2143.755859 
	C1616.347046,2059.358154 1611.774414,1974.636963 1607.210205,1890.070557 
	C1613.991577,1886.697266 1620.122681,1883.647461 1626.881836,1880.285400 
	C1719.094727,1960.522461 1811.570801,2040.988525 1904.876343,2122.176270 
	C1900.002075,2133.760498 1895.885132,2145.716309 1890.132935,2156.825684 
	C1869.035034,2197.573242 1847.838989,2238.283936 1825.771118,2278.510010 
	C1814.471436,2299.107666 1798.947510,2316.387451 1778.688354,2329.131348 
	C1766.940552,2336.520996 1754.379150,2341.637695 1740.904297,2344.044922 
	C1701.150879,2351.146973 1664.594727,2366.505127 1629.228516,2385.440186 
	C1618.151733,2391.370605 1606.187622,2395.643555 1594.314819,2401.337402 
	C1583.290161,2402.000000 1572.580200,2402.000000 1560.935181,2402.000000 
z"/>
<path fill="#050505" opacity="1.000000" stroke="none" 
	d="
M2339.898438,1602.343750 
	C2337.007812,1600.837402 2334.117432,1599.331177 2330.590576,1597.493408 
	C2345.513916,1551.808594 2360.278809,1506.608276 2375.503662,1460.000244 
	C2383.652832,1470.301880 2389.362793,1480.098511 2393.389648,1491.603638 
	C2394.000000,1496.741089 2394.000000,1501.482300 2394.000000,1507.111694 
	C2393.680176,1507.906250 2393.215332,1507.625610 2393.061279,1507.745239 
	C2377.907227,1519.522583 2377.831543,1519.550293 2383.888184,1537.713989 
	C2386.291504,1544.922241 2386.840820,1552.206421 2383.947266,1559.148071 
	C2378.435791,1572.370728 2377.035645,1586.082397 2376.590332,1601.103516 
	C2363.652832,1602.137939 2351.775635,1602.240845 2339.898438,1602.343750 
z"/>
<path fill="#010101" opacity="1.000000" stroke="none" 
	d="
M1195.561523,1602.404175 
	C1172.483154,1565.512329 1149.333374,1528.664673 1126.378906,1491.695923 
	C1120.949219,1482.951416 1115.865356,1473.958740 1111.166748,1464.800781 
	C1102.414429,1447.742310 1090.001831,1433.483032 1076.595581,1418.945923 
	C1104.407837,1386.499634 1132.055176,1354.245850 1159.574707,1322.141113 
	C1190.509888,1337.710938 1218.234619,1333.246460 1235.449463,1310.409302 
	C1251.318726,1289.357178 1249.888550,1259.929321 1232.054688,1240.559204 
	C1212.831787,1219.680420 1184.686890,1217.723633 1156.221069,1235.739502 
	C1079.773804,1159.822021 1003.205627,1083.784424 926.141235,1007.254028 
	C932.187744,997.671448 935.159668,987.364563 933.393738,975.526184 
	C991.508362,955.528198 1049.270264,935.651611 1106.818115,915.848633 
	C1129.327515,943.289612 1153.363892,944.043091 1175.174561,917.468933 
	C1245.029663,945.661011 1315.244751,973.998291 1385.451294,1002.974243 
	C1379.996704,1005.094666 1374.578613,1006.690613 1369.099365,1008.036987 
	C1351.395874,1012.387085 1333.669922,1016.645447 1314.725098,1021.236633 
	C1320.045410,1043.326660 1325.203369,1064.743042 1330.486450,1086.678101 
	C1344.923218,1083.228638 1358.130737,1079.952271 1371.396606,1076.932495 
	C1389.381592,1072.838623 1406.308716,1081.591187 1412.679932,1098.267334 
	C1414.095825,1101.973389 1414.965088,1105.903687 1415.898682,1109.776001 
	C1426.962891,1155.669312 1437.984985,1201.572632 1449.031250,1247.470337 
	C1457.743896,1283.671387 1466.524902,1319.855957 1475.178833,1356.070923 
	C1480.728638,1379.295776 1470.394287,1396.471313 1447.574463,1402.163330 
	C1436.929565,1404.818359 1426.242554,1407.304688 1415.603394,1409.981812 
	C1413.480835,1410.515991 1411.488770,1411.568970 1409.138062,1412.501221 
	C1412.741821,1428.629517 1416.210327,1444.151855 1419.678711,1459.674194 
	C1411.824463,1479.993774 1403.865845,1500.273804 1396.141479,1520.642700 
	C1385.936890,1547.552002 1375.915894,1574.530762 1364.424683,1601.910889 
	C1347.416382,1602.273682 1331.799438,1602.133301 1316.182617,1602.151489 
	C1275.975586,1602.198242 1235.768555,1602.315186 1195.561523,1602.404175 
z"/>
<path fill="#F8AA00" opacity="1.000000" stroke="none" 
	d="
M1419.905273,1460.460083 
	C1416.210327,1444.151855 1412.741821,1428.629517 1409.138062,1412.501221 
	C1411.488770,1411.568970 1413.480835,1410.515991 1415.603394,1409.981812 
	C1426.242554,1407.304688 1436.929565,1404.818359 1447.574463,1402.163330 
	C1470.394287,1396.471313 1480.728638,1379.295776 1475.178833,1356.070923 
	C1466.524902,1319.855957 1457.743896,1283.671387 1449.031250,1247.470337 
	C1437.984985,1201.572632 1426.962891,1155.669312 1415.898682,1109.776001 
	C1414.965088,1105.903687 1414.095825,1101.973389 1412.679932,1098.267334 
	C1406.308716,1081.591187 1389.381592,1072.838623 1371.396606,1076.932495 
	C1358.130737,1079.952271 1344.923218,1083.228638 1330.486450,1086.678101 
	C1325.203369,1064.743042 1320.045410,1043.326660 1314.725098,1021.236633 
	C1333.669922,1016.645447 1351.395874,1012.387085 1369.099365,1008.036987 
	C1374.578613,1006.690613 1379.996704,1005.094666 1386.151001,1003.385132 
	C1391.008911,1002.225891 1395.158691,1001.294434 1400.828003,1000.000671 
	C1414.763428,996.815674 1427.179077,993.992920 1439.985474,991.081421 
	C1431.742310,956.705139 1423.819824,923.666260 1415.840332,890.389893 
	C1421.334595,888.287903 1426.163574,886.440491 1430.992554,884.593018 
	C1433.484253,884.335388 1435.975830,884.077759 1439.968018,883.588196 
	C1451.421265,881.000671 1461.374023,878.645142 1472.257812,876.069214 
	C1480.461182,909.873779 1488.509277,943.038147 1496.817261,977.273865 
	C1514.483643,973.024048 1531.380127,968.959412 1548.997803,964.721313 
	C1540.794434,930.298706 1532.887939,897.122009 1524.898315,863.596497 
	C1533.470581,861.293152 1540.821167,859.318115 1548.171753,857.343018 
	C1550.980957,856.652893 1553.790161,855.962830 1558.055908,855.034851 
	C1566.570557,853.227417 1573.628662,851.657837 1581.286133,849.955017 
	C1590.208862,883.772888 1597.072388,917.476929 1606.172607,950.903137 
	C1617.886108,948.174438 1628.230713,945.725647 1638.593506,943.356995 
	C1702.686157,928.707092 1767.984253,964.684387 1789.404297,1026.727539 
	C1802.124268,1063.570801 1796.489502,1097.488770 1772.015747,1128.071045 
	C1770.673828,1129.747681 1769.522583,1131.577026 1767.909912,1133.863892 
	C1771.314209,1134.613037 1773.878540,1135.238892 1776.467407,1135.737671 
	C1818.529053,1143.841431 1848.321777,1167.536743 1865.250977,1206.776489 
	C1872.394897,1223.334961 1876.207397,1241.071167 1877.618774,1259.019653 
	C1882.949097,1326.801270 1838.946777,1387.554199 1772.940308,1404.125854 
	C1756.816406,1408.174072 1740.626221,1411.957153 1724.488281,1415.949829 
	C1722.386841,1416.469727 1720.415894,1417.516235 1718.117798,1418.424072 
	C1719.620239,1423.548096 1720.921753,1427.987305 1722.223389,1432.426636 
	C1722.802002,1435.299072 1723.380615,1438.171387 1724.354004,1442.192383 
	C1724.748779,1443.340820 1725.221313,1444.165894 1725.221313,1444.165894 
	C1725.221313,1444.165894 1726.163086,1444.031372 1726.163086,1444.031372 
	C1726.163086,1444.031372 1726.000610,1444.035889 1725.558228,1444.716309 
	C1730.920898,1470.270630 1736.725952,1495.144531 1742.710815,1520.789062 
	C1723.613647,1525.381226 1705.346924,1529.773682 1686.258057,1534.363892 
	C1677.860962,1499.713745 1669.666992,1465.902100 1661.242310,1431.138428 
	C1643.531250,1435.425049 1626.628906,1439.515869 1609.069702,1443.765747 
	C1617.466675,1478.878540 1625.551392,1512.684937 1633.685791,1546.699707 
	C1624.153442,1549.340088 1615.547119,1551.723877 1606.940796,1554.107666 
	C1604.443481,1554.652100 1601.946167,1555.196655 1598.028442,1555.902954 
	C1590.259521,1557.488281 1583.911133,1558.912109 1577.098389,1560.439941 
	C1568.672974,1525.634888 1560.506348,1491.899170 1552.161987,1457.429688 
	C1509.987061,1467.522217 1468.824585,1477.372437 1427.398193,1487.285889 
	C1425.741577,1482.208862 1424.419434,1478.157104 1423.097290,1474.105469 
	C1422.108765,1469.818970 1421.120361,1465.532471 1419.905273,1460.460083 
M1737.635010,1235.590332 
	C1723.362793,1212.709839 1691.211548,1195.385620 1656.368774,1205.502075 
	C1644.247559,1209.021484 1631.777466,1211.329834 1619.491455,1214.293091 
	C1599.166016,1219.195190 1578.860718,1224.179810 1557.437378,1229.400024 
	C1568.577271,1275.712646 1579.583374,1321.469604 1590.741821,1367.859253 
	C1628.004395,1358.802979 1664.583984,1350.308472 1700.926392,1340.897949 
	C1716.959106,1336.746582 1729.496948,1326.595459 1738.211792,1312.463501 
	C1753.662842,1287.408081 1752.898804,1262.090210 1737.635010,1235.590332 
M1529.188843,1111.897583 
	C1533.753174,1130.860718 1538.317383,1149.823975 1542.975708,1169.177856 
	C1546.214478,1168.640381 1548.494751,1168.406128 1550.703003,1167.873657 
	C1574.932617,1162.030762 1599.219727,1156.408691 1623.356079,1150.201416 
	C1659.130493,1141.000977 1680.558228,1107.042847 1673.825928,1070.902832 
	C1667.734985,1038.205078 1635.686157,1015.752197 1602.836060,1021.642151 
	C1590.096313,1023.926331 1577.536743,1027.246826 1564.933960,1030.257935 
	C1547.860352,1034.337524 1530.824097,1038.573853 1512.695679,1043.005859 
	C1518.121826,1065.880371 1523.392700,1088.099854 1529.188843,1111.897583 
z"/>
<path fill="#010101" opacity="1.000000" stroke="none" 
	d="
M999.832947,802.094971 
	C1003.684021,804.685974 1007.618469,807.161987 1011.372864,809.886108 
	C1041.035400,831.408264 1070.667847,852.971924 1100.295532,874.542236 
	C1102.952026,876.476257 1105.508789,878.547363 1107.415527,880.017761 
	C1105.961792,889.229919 1104.632080,897.656616 1103.003662,907.976013 
	C1046.932495,927.283325 989.200195,947.162720 931.009094,967.200012 
	C918.909119,949.801331 903.339783,941.181702 882.196228,949.046387 
	C867.919495,954.356750 857.908447,969.254028 858.745911,984.257812 
	C859.793457,1003.025940 870.053650,1014.980103 888.971436,1020.866272 
	C884.928101,1072.755615 880.873779,1124.785767 876.849243,1176.433350 
	C859.546570,1184.965942 844.449768,1179.525757 836.676392,1167.350342 
	C832.385315,1160.629272 827.912781,1154.021973 823.710632,1147.246460 
	C814.240479,1131.976929 800.281799,1123.563843 782.686218,1122.734497 
	C774.667786,1122.356445 766.272827,1124.778442 758.417358,1127.151367 
	C738.543701,1133.154297 720.837952,1143.834595 702.992798,1154.146851 
	C679.357178,1167.805542 656.558838,1182.632935 635.264160,1199.818481 
	C619.314636,1212.690186 600.587463,1219.243042 580.136292,1220.250122 
	C569.954895,1220.751587 559.720215,1220.579224 549.522827,1220.272339 
	C513.746643,1219.195679 481.206360,1227.933228 453.154633,1251.063843 
	C443.386749,1259.118286 433.276031,1266.420410 420.082153,1268.435303 
	C401.512726,1271.271118 384.450287,1267.311401 368.565735,1258.064453 
	C359.980103,1253.066162 351.992920,1247.021729 343.847961,1241.289795 
	C335.422760,1235.360474 327.406158,1228.805420 318.707184,1223.323120 
	C310.124115,1217.913940 300.910614,1213.505127 291.149353,1208.210205 
	C402.350677,1113.567871 513.443787,1019.017700 624.882019,924.173706 
	C635.403564,931.445801 646.421509,936.092590 659.468872,932.768372 
	C668.604309,930.440674 675.942078,925.676819 681.400208,918.097900 
	C693.307312,901.564392 689.873291,881.884583 671.547363,864.124268 
	C681.623596,843.908691 691.830322,823.431274 703.439819,802.679321 
	C801.855103,802.439758 898.867676,802.476440 995.880249,802.492615 
	C997.197815,802.492859 998.515381,802.233276 999.832947,802.094971 
z"/>
<path fill="#0F632F" opacity="1.000000" stroke="none" 
	d="
M1570.529785,2223.034912 
	C1576.922119,2235.708496 1586.424438,2244.222168 1599.104248,2250.069336 
	C1578.169434,2297.364502 1557.618652,2343.791504 1536.639771,2391.186035 
	C1521.024414,2381.804688 1509.851440,2370.428955 1508.447754,2352.119385 
	C1508.047607,2346.899414 1509.128296,2341.574951 1509.406738,2336.291992 
	C1510.077515,2323.563965 1507.172607,2311.708008 1499.035278,2301.804688 
	C1492.926392,2294.370117 1486.077881,2287.501709 1479.192627,2280.754883 
	C1463.432007,2265.310303 1449.625000,2248.369141 1438.124512,2229.510010 
	C1426.921265,2211.138428 1411.573120,2196.544678 1392.215820,2187.755127 
	C1365.460815,2175.606201 1349.655762,2154.827637 1342.328003,2127.814941 
	C1329.874023,2081.905273 1308.036499,2040.043945 1288.748413,1997.044189 
	C1267.305176,1949.240112 1236.566650,1907.632080 1203.207764,1867.710815 
	C1191.616821,1853.839844 1181.901367,1838.791504 1177.544800,1820.906250 
	C1174.217285,1807.244873 1173.260010,1793.465088 1175.232056,1779.453613 
	C1176.562378,1770.003174 1177.264771,1760.464478 1178.338257,1750.092896 
	C1210.965576,1752.598755 1242.682617,1755.034790 1274.591553,1757.485474 
	C1277.615967,1776.921509 1287.532349,1789.753174 1306.687500,1792.903931 
	C1324.460815,1795.827271 1337.568726,1787.690674 1346.888794,1772.018799 
	C1419.296265,1796.089722 1491.464111,1820.081055 1563.386963,1843.990845 
	C1562.608521,1867.282959 1569.760986,1882.826782 1598.577271,1890.305176 
	C1603.156128,1974.751709 1607.751099,2059.496582 1612.383545,2144.930908 
	C1592.480103,2149.396484 1577.256348,2159.569092 1569.424683,2178.643066 
	C1563.425171,2193.255371 1564.043701,2207.881836 1570.529785,2223.034912 
z"/>
<path fill="#0F622F" opacity="1.000000" stroke="none" 
	d="
M2060.171875,1602.219604 
	C2054.914795,1613.292114 2050.015625,1624.551880 2044.335205,1635.402710 
	C2025.581177,1671.226196 1999.899780,1701.494385 1969.610107,1728.096436 
	C1962.890137,1733.998169 1956.740601,1740.678711 1951.041504,1747.588867 
	C1935.336548,1766.631226 1931.869873,1788.539307 1937.247070,1812.159058 
	C1940.984497,1828.577271 1949.156128,1843.087646 1957.205688,1857.645996 
	C1960.745361,1864.047974 1964.267334,1870.487915 1967.296265,1877.138916 
	C1979.450439,1903.828247 1975.299072,1927.162598 1954.986572,1948.526001 
	C1947.906982,1955.971924 1940.243652,1963.038940 1934.234131,1971.289429 
	C1921.754639,1988.422974 1916.215576,2008.056519 1916.318848,2029.277100 
	C1916.425659,2051.211670 1916.978027,2073.187744 1912.125610,2094.797119 
	C1910.851318,2100.472168 1909.192261,2106.060791 1907.401489,2112.859619 
	C1815.003296,2032.457031 1723.578613,1952.901489 1632.305420,1873.477905 
	C1645.879028,1847.050049 1634.694458,1821.634888 1606.623169,1814.220703 
	C1606.623169,1744.101440 1606.623169,1673.925781 1607.722778,1602.866211 
	C1612.819214,1602.033813 1616.816162,1602.130127 1620.812988,1602.130493 
	C1706.442871,1602.139160 1792.072632,1602.131958 1877.702515,1602.152100 
	C1882.029175,1602.153076 1886.355713,1602.371704 1890.682373,1602.488892 
	C1880.194580,1626.168091 1869.782593,1649.881104 1859.198730,1673.517334 
	C1847.792480,1698.990356 1836.216675,1724.387329 1824.742554,1749.830078 
	C1823.653687,1752.244507 1822.319580,1754.682739 1821.943481,1757.234131 
	C1821.715576,1758.779419 1822.707642,1761.472290 1823.888672,1761.999878 
	C1825.211304,1762.590820 1827.802612,1761.814941 1829.042725,1760.724731 
	C1830.424316,1759.510254 1830.954224,1757.293823 1831.772949,1755.476685 
	C1854.704468,1704.583374 1877.625366,1653.685303 1902.051514,1602.429199 
	C1955.760620,1602.120117 2007.966309,1602.169800 2060.171875,1602.219604 
z"/>
<path fill="#FE0304" opacity="1.000000" stroke="none" 
	d="
M526.951782,479.004211 
	C471.552887,445.721313 416.760101,412.845428 361.742493,379.834686 
	C367.077667,361.480469 364.742188,345.453827 348.915009,333.842896 
	C336.538208,324.763153 322.856262,323.737274 309.382599,331.109924 
	C292.639313,340.271606 287.613983,355.355896 290.432892,374.302673 
	C247.654160,391.789520 205.045105,409.207031 160.938110,427.236877 
	C161.685364,422.549591 161.840988,419.614166 162.644730,416.868469 
	C166.279709,404.450562 165.023499,392.037079 163.444000,379.475433 
	C158.756699,342.197540 165.786057,307.353302 187.027145,276.070587 
	C191.599594,269.336517 197.879547,263.315002 204.495392,258.511078 
	C217.087967,249.367355 226.182526,237.637772 231.490524,223.450897 
	C235.999008,211.400864 238.454803,198.586578 241.902466,186.133606 
	C242.962067,182.306335 244.148895,178.499939 245.537704,174.781174 
	C248.308044,167.363129 259.217438,161.953354 267.146454,165.777298 
	C273.417664,168.801697 279.941559,171.385681 286.529388,173.653625 
	C303.315857,179.432587 320.534363,180.036270 337.595428,175.590988 
	C371.975189,166.633331 404.749664,154.069366 431.585114,129.633102 
	C439.951050,122.015083 447.858948,113.895966 456.042480,106.075218 
	C477.607422,85.466316 503.550476,72.251053 531.075867,61.697216 
	C563.421814,49.295048 596.615479,40.077183 630.906860,34.957291 
	C631.458984,34.874855 632.082764,35.272224 633.456604,35.675964 
	C622.267944,78.992531 611.073242,122.332268 599.745300,166.188004 
	C579.139832,164.316742 561.562500,169.693924 548.336487,185.588364 
	C538.226685,197.737793 534.252747,211.974960 536.319824,227.587402 
	C539.958191,255.067810 566.228516,282.688019 609.032166,271.950775 
	C659.103516,381.860840 709.271362,491.982605 759.765808,602.821289 
	C756.493225,605.894531 753.206970,608.980652 749.419983,612.536987 
	C675.346924,568.090332 601.452393,523.750793 526.951782,479.004211 
z"/>
<path fill="#FE0304" opacity="1.000000" stroke="none" 
	d="
M280.004242,802.515198 
	C281.607391,786.969604 283.039795,771.404053 284.847809,755.882324 
	C289.122925,719.180725 293.577515,682.500000 297.957886,645.810669 
	C302.417114,608.460571 306.907379,571.114136 311.323090,533.758911 
	C315.621765,497.393860 319.835022,461.018799 324.105377,424.650391 
	C324.957092,417.396851 325.897400,410.153717 326.899872,402.075348 
	C338.389771,400.816132 348.713867,396.712128 356.940369,387.081512 
	C486.103058,464.615082 615.019897,542.001099 742.820618,618.717102 
	C743.098511,628.561768 742.607971,637.440491 743.798096,646.087830 
	C745.031128,655.047058 751.507019,661.314514 758.951660,667.505310 
	C736.822449,712.298218 714.755493,756.965149 691.274780,802.126648 
	C685.863037,802.586487 681.865051,802.521545 677.867126,802.521362 
	C545.246155,802.515503 412.625214,802.515808 280.004242,802.515198 
z"/>
<path fill="#FE0304" opacity="1.000000" stroke="none" 
	d="
M1338.295654,296.668396 
	C1375.995728,278.133209 1380.255493,226.212540 1345.076294,202.339935 
	C1331.899292,193.398010 1317.328613,191.760590 1302.005127,194.643005 
	C1300.069946,195.007034 1298.181396,195.619095 1295.189575,196.397751 
	C1280.718628,166.183029 1266.289551,136.055801 1251.107300,104.355721 
	C1266.687134,104.355721 1280.823486,103.927299 1294.920776,104.485420 
	C1307.150146,104.969589 1319.400269,106.108620 1331.520752,107.814644 
	C1342.665283,109.383308 1354.071167,110.883499 1364.612915,114.560951 
	C1384.682617,121.562172 1401.055664,115.369446 1416.332520,103.008049 
	C1420.974609,99.251816 1425.182251,94.959373 1429.600708,90.925468 
	C1443.536865,78.202156 1459.987305,75.443871 1477.937378,78.846497 
	C1480.535645,79.339035 1483.085571,80.180870 1485.591309,81.052422 
	C1502.672241,86.993629 1519.425415,85.386925 1536.062134,79.147331 
	C1553.624512,72.560638 1564.306152,75.286087 1574.624634,91.135422 
	C1591.197632,116.592056 1599.154297,144.110107 1589.936646,174.459656 
	C1581.777344,201.324860 1584.895752,226.964539 1597.663818,251.688934 
	C1614.014282,283.350067 1631.692139,314.197968 1654.186768,341.991241 
	C1660.021973,349.200897 1666.618286,355.794373 1673.769043,363.666077 
	C1660.837769,392.015869 1647.203247,421.907349 1633.291992,452.405182 
	C1610.998535,448.975952 1593.817871,455.643921 1584.767456,479.293182 
	C1494.796387,466.538177 1404.649414,453.758240 1313.066162,440.774689 
	C1315.615845,394.571777 1318.138794,348.852112 1320.682861,302.751068 
	C1326.420898,300.813904 1332.025757,298.921692 1338.295654,296.668396 
z"/>
<path fill="#020101" opacity="1.000000" stroke="none" 
	d="
M279.710602,803.238770 
	C412.625214,802.515808 545.246155,802.515503 677.867126,802.521362 
	C681.865051,802.521545 685.863037,802.586487 690.776855,802.682129 
	C682.503113,821.888428 673.313416,841.033752 664.223755,859.970764 
	C621.285583,852.438293 603.895935,889.593567 618.966797,917.255432 
	C617.165771,918.965759 615.351318,920.859680 613.364563,922.551208 
	C504.244629,1015.453796 395.086853,1108.312012 286.059357,1201.322998 
	C281.494507,1205.217163 277.518738,1205.779785 271.719727,1204.713501 
	C259.025848,1202.379517 246.798721,1199.309692 238.038086,1189.243652 
	C234.009903,1184.615356 229.628815,1178.962524 228.659851,1173.225098 
	C223.424622,1142.225342 203.634521,1122.762085 178.566391,1107.058472 
	C176.335449,1105.661011 174.129379,1104.223633 171.282104,1102.401978 
	C193.346878,1061.640625 215.332138,1021.026123 237.777359,979.561951 
	C256.072937,986.491577 273.755951,985.596741 290.173553,974.728394 
	C301.113312,967.486389 308.570526,957.458557 312.114227,944.743408 
	C316.346252,929.558594 314.634674,915.049500 306.566864,901.438293 
	C298.500488,887.829529 286.086578,879.983093 270.600067,875.661865 
	C273.577148,851.451965 276.497070,827.707153 279.710602,803.238770 
z"/>
<path fill="#020101" opacity="1.000000" stroke="none" 
	d="
M1722.915283,1432.553711 
	C1720.921753,1427.987305 1719.620239,1423.548096 1718.117798,1418.424072 
	C1720.415894,1417.516235 1722.386841,1416.469727 1724.488281,1415.949829 
	C1740.626221,1411.957153 1756.816406,1408.174072 1772.940308,1404.125854 
	C1838.946777,1387.554199 1882.949097,1326.801270 1877.618774,1259.019653 
	C1876.207397,1241.071167 1872.394897,1223.334961 1865.250977,1206.776489 
	C1848.321777,1167.536743 1818.529053,1143.841431 1776.467407,1135.737671 
	C1773.878540,1135.238892 1771.314209,1134.613037 1767.909912,1133.863892 
	C1769.522583,1131.577026 1770.673828,1129.747681 1772.015747,1128.071045 
	C1796.489502,1097.488770 1802.124268,1063.570801 1789.404297,1026.727539 
	C1767.984253,964.684387 1702.686157,928.707092 1638.593506,943.356995 
	C1628.230713,945.725647 1617.886108,948.174438 1606.172607,950.903137 
	C1597.072388,917.476929 1590.208862,883.772888 1581.286133,849.955017 
	C1573.628662,851.657837 1566.570557,853.227417 1558.665527,854.907837 
	C1560.114380,841.436768 1562.387329,827.850830 1564.720947,814.275330 
	C1565.331909,810.721436 1566.131104,807.199890 1568.233643,803.085693 
	C1646.470825,802.510376 1723.318237,802.516541 1800.165649,802.503052 
	C1803.487305,802.502502 1806.808838,802.320923 1810.130493,802.223755 
	C1817.468140,813.685303 1824.927612,825.071045 1832.121216,836.622314 
	C1856.220459,875.319214 1880.225830,914.074524 1904.261963,952.810730 
	C1905.650635,955.048767 1906.993042,957.315430 1908.657715,960.065430 
	C1897.305664,971.136475 1892.089844,984.384277 1896.383057,999.864502 
	C1900.694824,1015.411682 1911.820679,1024.157715 1928.319092,1027.313965 
	C1929.260132,1177.075439 1930.199097,1326.484741 1931.143921,1476.823364 
	C1918.744019,1479.363281 1908.513794,1485.557129 1902.162354,1497.648682 
	C1842.167603,1475.819336 1782.887329,1454.250000 1722.915283,1432.553711 
z"/>
<path fill="#FE0304" opacity="1.000000" stroke="none" 
	d="
M1822.068359,802.785461 
	C1820.524170,800.648010 1818.843750,798.595154 1817.455566,796.360779 
	C1761.578857,706.426758 1705.726685,616.477600 1649.884033,526.522400 
	C1648.330688,524.020142 1646.916992,521.431152 1645.526489,519.034729 
	C1664.401123,493.846985 1663.352783,476.572266 1641.197510,456.076355 
	C1654.497437,426.895630 1667.947998,397.384399 1681.691284,367.230865 
	C1701.224121,376.853638 1713.892700,391.659851 1720.591064,411.165619 
	C1724.664673,423.028412 1726.955811,435.515076 1729.849487,447.768250 
	C1733.052490,461.330322 1738.164917,473.908997 1749.467285,482.708282 
	C1754.339966,486.501770 1759.924194,490.247223 1765.770142,491.773926 
	C1790.267334,498.171448 1806.251099,513.504639 1815.763428,536.447205 
	C1819.069580,544.421143 1822.399414,552.420532 1826.339844,560.088989 
	C1835.543213,577.999878 1849.068481,592.286316 1866.641968,601.785522 
	C1883.244263,610.759766 1900.818359,617.938110 1917.978394,625.877441 
	C1927.003296,630.052917 1936.442749,633.503845 1944.995239,638.483582 
	C1954.717529,644.144348 1961.222778,652.055908 1962.703613,664.484741 
	C1965.267090,685.999695 1977.470093,697.130554 1999.257812,702.055725 
	C2011.499878,704.823120 2022.975830,702.559814 2034.399536,698.949829 
	C2059.284912,691.085693 2081.797852,678.138794 2104.601074,665.804443 
	C2127.388184,653.478760 2150.166748,641.119812 2173.263428,629.394592 
	C2181.776855,625.072815 2190.921143,621.598450 2200.874512,621.650513 
	C2211.440918,621.705750 2216.378418,624.033508 2218.138184,634.351074 
	C2220.124023,645.994385 2220.684082,658.200195 2219.666748,669.971497 
	C2217.401367,696.183533 2210.190674,721.468872 2202.582520,746.584229 
	C2201.052246,751.636536 2199.426514,756.660034 2197.778076,761.910339 
	C2175.119873,766.806885 2152.768311,771.637207 2130.338379,776.484436 
	C2128.853516,773.866516 2127.764648,771.840576 2126.578857,769.872864 
	C2117.083008,754.112976 2098.625977,747.439087 2081.593018,753.586548 
	C2063.989990,759.939819 2054.336914,776.840881 2057.570801,795.660034 
	C2057.852783,797.300781 2058.186279,798.932739 2057.621582,801.510559 
	C1987.505493,802.470032 1918.263794,802.477966 1849.022217,802.517578 
	C1840.037598,802.522766 1831.052979,802.692139 1822.068359,802.785461 
z"/>
<path fill="#FE0304" opacity="1.000000" stroke="none" 
	d="
M1404.257568,802.716003 
	C1395.235229,783.086304 1386.114502,763.501221 1377.210938,743.817749 
	C1358.158691,701.697815 1339.218994,659.527039 1320.024048,616.913147 
	C1332.921143,607.135803 1340.296631,594.527954 1337.488037,578.114258 
	C1334.684814,561.731201 1324.218262,551.780579 1307.091797,546.973328 
	C1308.835571,515.087463 1310.590942,482.991364 1312.428833,449.387146 
	C1403.168457,462.264496 1493.205078,475.042084 1583.478516,487.853302 
	C1584.808105,505.696228 1593.008667,518.005493 1610.032715,524.852295 
	C1608.532227,533.496887 1607.110840,542.271851 1605.476929,551.007080 
	C1590.184692,632.759399 1574.857544,714.505188 1559.524536,796.249939 
	C1559.218262,797.883179 1558.719971,799.480347 1557.086914,801.836426 
	C1505.327515,802.624329 1454.792603,802.670166 1404.257568,802.716003 
z"/>
<path fill="#020202" opacity="1.000000" stroke="none" 
	d="
M2060.691650,1601.723145 
	C2007.966309,1602.169800 1955.760620,1602.120117 1902.595459,1602.008179 
	C1909.026123,1584.905273 1916.416260,1567.864624 1923.946899,1550.499878 
	C1936.859131,1553.446167 1948.433960,1552.004395 1958.565063,1544.117920 
	C1966.217773,1538.160645 1970.903809,1530.384033 1972.539185,1520.687622 
	C1976.048462,1499.881714 1963.847412,1482.982666 1939.799316,1476.931152 
	C1938.858521,1327.410889 1937.915771,1177.599854 1936.974609,1028.024048 
	C1969.728027,1018.907349 1979.187622,988.905273 1959.764160,962.749695 
	C1997.673218,915.658142 2035.654907,868.476196 2073.898682,820.968811 
	C2085.566895,826.452332 2097.124268,828.305603 2108.938965,823.261963 
	C2118.263184,819.281616 2124.727783,812.369202 2130.346680,802.862366 
	C2148.960693,802.704163 2166.169922,802.928223 2183.378906,803.152344 
	C2169.593750,836.926697 2156.474121,870.992065 2141.866943,904.407288 
	C2120.044434,954.328491 2095.475342,1002.963196 2068.008301,1050.018799 
	C2050.601807,1079.838989 2031.674072,1108.771362 2013.424927,1138.099487 
	C2005.530518,1150.786621 1997.687378,1163.506226 1989.713501,1176.143188 
	C1972.999390,1202.631958 1971.172363,1231.696655 1975.076050,1261.645996 
	C1980.487061,1303.158813 1999.946045,1338.950928 2021.158203,1374.053223 
	C2034.032715,1395.357910 2047.118164,1416.588379 2058.783936,1438.555786 
	C2071.160645,1461.861572 2078.754150,1486.806641 2079.938477,1513.554199 
	C2080.983643,1537.162842 2076.450928,1559.701294 2068.866211,1581.799316 
	C2066.608887,1588.376099 2063.778809,1594.756470 2060.691650,1601.723145 
z"/>
<path fill="#0F622F" opacity="1.000000" stroke="none" 
	d="
M1597.766846,1602.030884 
	C1597.789062,1628.330688 1597.971191,1654.631592 1597.796875,1680.930054 
	C1597.518677,1722.888428 1597.008667,1764.845337 1596.573975,1806.802734 
	C1596.550171,1809.097046 1596.319214,1811.389282 1596.153198,1814.219116 
	C1583.461914,1816.961304 1573.284546,1823.295288 1566.727173,1835.932129 
	C1494.465576,1811.927002 1422.351562,1787.970825 1349.883423,1763.897095 
	C1351.399170,1746.158081 1345.766357,1732.061523 1329.809082,1722.491211 
	C1344.752808,1682.461792 1359.611206,1642.660645 1375.955566,1602.465088 
	C1450.883179,1602.057373 1524.325073,1602.044067 1597.766846,1602.030884 
z"/>
<path fill="#020101" opacity="1.000000" stroke="none" 
	d="
M11.941195,803.462891 
	C14.523808,802.705139 17.178305,802.526123 19.832808,802.526001 
	C102.597649,802.521545 185.362488,802.534668 269.064362,802.589355 
	C268.403564,818.184204 266.875427,833.742371 265.179626,849.282104 
	C264.279633,857.529297 263.088776,865.744690 261.968201,874.448181 
	C233.989944,876.445557 213.931747,889.223389 207.199585,917.125793 
	C201.472244,940.863647 210.214325,960.249939 230.112350,975.469177 
	C207.969574,1016.368530 185.857147,1057.211914 164.108490,1097.383301 
	C142.982956,1089.015991 122.672035,1080.963257 102.354698,1072.926758 
	C89.223747,1067.732910 82.413078,1058.017212 81.802193,1043.988647 
	C81.571121,1038.682373 81.952667,1033.344727 81.626488,1028.047729 
	C80.776039,1014.236755 74.928261,1003.345764 62.769810,996.043274 
	C57.113850,992.646301 51.393665,989.127075 46.472511,984.789734 
	C39.163723,978.348022 36.027977,969.728516 35.601852,959.940125 
	C35.042934,947.101318 38.306927,934.918213 41.350010,922.687561 
	C44.979610,908.099609 46.964382,893.368530 46.356312,878.298340 
	C45.571022,858.835876 40.408276,841.216248 27.174963,826.177673 
	C21.323803,819.528320 17.019567,811.517639 11.941195,803.462891 
z"/>
<path fill="#020202" opacity="1.000000" stroke="none" 
	d="
M1095.934814,1188.060059 
	C1114.017334,1206.313721 1131.597656,1224.065430 1149.727539,1242.372070 
	C1132.869873,1266.833984 1133.190796,1291.371582 1153.116455,1316.267578 
	C1125.902100,1348.049561 1098.476562,1380.078247 1070.830811,1412.364014 
	C1068.909668,1411.145874 1067.019775,1410.341064 1065.637451,1409.009521 
	C1053.330566,1397.154175 1039.459229,1387.432251 1024.404907,1379.510986 
	C994.553955,1363.804565 983.420044,1337.719849 982.282898,1305.673584 
	C981.604309,1286.551147 985.930115,1268.130005 989.265320,1249.539673 
	C991.548096,1236.815063 993.366211,1224.068604 990.781250,1211.086792 
	C986.306152,1188.613159 971.618347,1174.315918 952.483948,1164.145020 
	C931.476685,1152.978638 910.548157,1152.594604 890.746094,1167.618408 
	C889.957092,1168.216919 889.039551,1168.655151 888.151489,1169.108521 
	C887.895996,1169.238770 887.533508,1169.159546 886.006531,1169.240601 
	C889.892944,1119.957397 893.767029,1070.831421 897.578186,1022.502441 
	C905.504639,1019.632935 912.323364,1017.164429 920.690674,1014.135376 
	C978.274963,1071.285034 1036.853760,1129.421631 1095.934814,1188.060059 
z"/>
<path fill="#020101" opacity="1.000000" stroke="none" 
	d="
M1430.643799,883.872192 
	C1426.163574,886.440491 1421.334595,888.287903 1415.840332,890.389893 
	C1423.819824,923.666260 1431.742310,956.705139 1439.985474,991.081421 
	C1427.179077,993.992920 1414.763428,996.815674 1401.605347,999.739441 
	C1380.041260,991.214783 1359.274414,982.453674 1338.386963,973.990051 
	C1287.289551,953.285156 1236.135498,932.719971 1185.009155,912.086487 
	C1182.865845,911.221497 1180.771851,910.234436 1178.255737,909.128845 
	C1181.194336,892.384949 1176.518921,878.263977 1162.392090,867.701843 
	C1173.507690,845.801453 1184.306519,824.525146 1196.521484,802.864136 
	C1260.043579,802.490356 1322.149780,802.509399 1384.255859,802.487488 
	C1387.226440,802.486450 1390.196899,802.123840 1393.167480,801.929565 
	C1400.008179,816.613342 1406.924316,831.262573 1413.666626,845.991394 
	C1419.314819,858.329834 1424.760010,870.761108 1430.643799,883.872192 
z"/>
<path fill="#FE0304" opacity="1.000000" stroke="none" 
	d="
M1810.001953,801.518188 
	C1806.808838,802.320923 1803.487305,802.502502 1800.165649,802.503052 
	C1723.318237,802.516541 1646.470825,802.510376 1568.661377,802.481079 
	C1570.771240,784.766724 1573.657104,767.044495 1576.947632,749.397583 
	C1589.209106,683.642090 1601.603516,617.911438 1613.947266,552.171265 
	C1615.481689,543.999023 1617.011108,535.825867 1618.635620,527.157837 
	C1624.698486,526.076172 1630.794922,524.988525 1637.945801,523.712708 
	C1695.139038,615.892395 1752.506226,708.352478 1810.001953,801.518188 
z"/>
<path fill="#020101" opacity="1.000000" stroke="none" 
	d="
M1891.175781,1601.996582 
	C1886.355713,1602.371704 1882.029175,1602.153076 1877.702515,1602.152100 
	C1792.072632,1602.131958 1706.442871,1602.139160 1620.812988,1602.130493 
	C1616.816162,1602.130127 1612.819214,1602.033813 1607.957764,1601.952271 
	C1607.059814,1586.601318 1607.026611,1571.280518 1606.967041,1555.033691 
	C1615.547119,1551.723877 1624.153442,1549.340088 1633.685791,1546.699707 
	C1625.551392,1512.684937 1617.466675,1478.878540 1609.069702,1443.765747 
	C1626.628906,1439.515869 1643.531250,1435.425049 1661.242310,1431.138428 
	C1669.666992,1465.902100 1677.860962,1499.713745 1686.258057,1534.363892 
	C1705.346924,1529.773682 1723.613647,1525.381226 1742.710815,1520.789062 
	C1736.725952,1495.144531 1730.920898,1470.270630 1725.551758,1444.635376 
	C1728.545654,1444.459595 1731.198486,1444.782959 1733.647217,1445.669800 
	C1787.316528,1465.105103 1840.964111,1484.600708 1894.608643,1504.104492 
	C1895.823608,1504.546387 1896.955566,1505.216431 1897.996460,1505.717529 
	C1898.816895,1529.133301 1900.333984,1532.665771 1916.057983,1547.408691 
	C1907.987183,1565.309937 1899.828125,1583.407104 1891.175781,1601.996582 
z"/>
<path fill="#FE0304" opacity="1.000000" stroke="none" 
	d="
M999.487427,801.526306 
	C998.515381,802.233276 997.197815,802.492859 995.880249,802.492615 
	C898.867676,802.476440 801.855103,802.439758 703.846802,802.189392 
	C714.891846,777.155518 726.880737,752.311646 738.990540,727.526855 
	C748.037903,709.009766 757.241211,690.568970 766.419739,672.004028 
	C773.946838,672.004028 781.449768,673.172607 788.370422,671.666260 
	C794.926025,670.239319 800.871155,666.007385 808.634216,662.261353 
	C871.238281,707.839294 935.190063,754.398438 999.487427,801.526306 
z"/>
<path fill="#010100" opacity="1.000000" stroke="none" 
	d="
M1597.949097,1601.103760 
	C1524.325073,1602.044067 1450.883179,1602.057373 1376.473877,1601.999268 
	C1381.701904,1584.852295 1387.789429,1567.736694 1394.118530,1550.710938 
	C1403.450195,1525.608154 1412.953857,1500.569336 1422.740723,1474.804443 
	C1424.419434,1478.157104 1425.741577,1482.208862 1427.398193,1487.285889 
	C1468.824585,1477.372437 1509.987061,1467.522217 1552.161987,1457.429688 
	C1560.506348,1491.899170 1568.672974,1525.634888 1577.098389,1560.439941 
	C1583.911133,1558.912109 1590.259521,1557.488281 1597.416992,1556.120728 
	C1598.194458,1570.843384 1598.162964,1585.510010 1597.949097,1601.103760 
z"/>
<path fill="#030101" opacity="1.000000" stroke="none" 
	d="
M1822.203491,803.417236 
	C1831.052979,802.692139 1840.037598,802.522766 1849.022217,802.517578 
	C1918.263794,802.477966 1987.505493,802.470032 2057.734619,802.352966 
	C2061.324219,806.484436 2063.926025,810.715332 2066.982666,815.685486 
	C2029.047974,862.815857 1990.889404,910.224426 1952.523560,957.890564 
	C1940.879028,951.656311 1929.336548,950.363220 1917.145020,955.455750 
	C1916.012207,954.173096 1914.756714,953.098816 1913.926147,951.760681 
	C1883.372437,902.538696 1852.858154,853.292236 1822.203491,803.417236 
z"/>
<path fill="#FE0405" opacity="1.000000" stroke="none" 
	d="
M1393.104248,801.149292 
	C1390.196899,802.123840 1387.226440,802.486450 1384.255859,802.487488 
	C1322.149780,802.509399 1260.043579,802.490356 1197.005493,802.395142 
	C1203.660889,786.792236 1211.115723,771.206848 1218.861206,755.767456 
	C1240.051025,713.529175 1261.357910,671.349731 1282.638916,629.157349 
	C1284.122192,626.216553 1285.775879,623.361633 1287.093262,620.939331 
	C1295.513916,620.939331 1303.355591,620.939331 1312.354858,620.939331 
	C1339.066284,680.340027 1366.053589,740.354492 1393.104248,801.149292 
z"/>
<path fill="#0F632F" opacity="1.000000" stroke="none" 
	d="
M1195.655029,1603.141235 
	C1235.768555,1602.315186 1275.975586,1602.198242 1316.182617,1602.151489 
	C1331.799438,1602.133301 1347.416382,1602.273682 1364.029053,1602.490723 
	C1352.988770,1635.065308 1340.958496,1667.493408 1328.911865,1699.915283 
	C1326.598267,1706.141846 1324.219727,1712.344482 1321.728271,1718.936157 
	C1298.732666,1716.452026 1282.953247,1725.569336 1275.164307,1748.788208 
	C1243.912842,1746.418579 1212.490723,1744.036011 1179.798828,1741.557251 
	C1182.245972,1729.838379 1184.128906,1718.826904 1186.897705,1708.042969 
	C1190.776123,1692.937866 1195.144409,1677.951416 1199.611694,1663.006470 
	C1205.661743,1642.767090 1204.626343,1623.092041 1195.655029,1603.141235 
z"/>
<path fill="#116430" opacity="1.000000" stroke="none" 
	d="
M2278.628418,1602.640015 
	C2265.836914,1613.151489 2256.869873,1625.781494 2255.503418,1642.930298 
	C2253.350342,1669.949341 2268.871094,1692.644287 2295.046387,1700.388184 
	C2297.260986,1701.043091 2299.458496,1701.754639 2302.509521,1702.702637 
	C2299.382812,1766.799316 2296.254395,1830.928955 2293.110352,1895.376587 
	C2284.410400,1897.693604 2277.420166,1894.737305 2272.395752,1888.686035 
	C2265.632812,1880.540527 2259.314453,1871.883423 2253.892334,1862.797119 
	C2242.993408,1844.532959 2232.649658,1825.928833 2222.416016,1807.278931 
	C2212.803711,1789.761108 2212.380127,1771.192871 2217.060303,1752.160156 
	C2221.099121,1735.736084 2225.998535,1719.427856 2228.602539,1702.769043 
	C2232.699707,1676.556274 2231.416748,1650.428223 2222.184082,1625.120361 
	C2219.569824,1617.954346 2217.263184,1610.676025 2215.700684,1602.738892 
	C2237.266357,1602.232422 2257.947510,1602.436157 2278.628418,1602.640015 
z"/>
<path fill="#040201" opacity="1.000000" stroke="none" 
	d="
M1404.312744,803.383911 
	C1454.792603,802.670166 1505.327515,802.624329 1556.779785,802.613281 
	C1554.543457,820.376221 1551.389648,838.104370 1548.203857,856.587769 
	C1540.821167,859.318115 1533.470581,861.293152 1524.898315,863.596497 
	C1532.887939,897.122009 1540.794434,930.298706 1548.997803,964.721313 
	C1531.380127,968.959412 1514.483643,973.024048 1496.817261,977.273865 
	C1488.509277,943.038147 1480.461182,909.873779 1472.257812,876.069214 
	C1461.374023,878.645142 1451.421265,881.000671 1440.698975,883.367554 
	C1428.075562,856.936523 1416.221802,830.494141 1404.312744,803.383911 
z"/>
<path fill="#116431" opacity="1.000000" stroke="none" 
	d="
M2340.209717,1602.916382 
	C2351.775635,1602.240845 2363.652832,1602.137939 2376.421875,1602.016846 
	C2377.429932,1633.579712 2378.051025,1665.169922 2377.482666,1696.738892 
	C2377.113037,1717.253418 2375.409912,1737.772217 2373.583984,1758.224731 
	C2371.201416,1784.912598 2369.690674,1811.768921 2362.149902,1837.728516 
	C2353.742676,1866.670776 2335.673828,1886.239380 2306.474609,1894.957764 
	C2305.550293,1895.233887 2304.561279,1895.313110 2303.595215,1895.418823 
	C2303.284668,1895.452759 2302.950928,1895.276367 2301.680420,1894.960815 
	C2304.810059,1831.121216 2307.948975,1767.092651 2311.089600,1703.028320 
	C2338.096191,1699.295776 2356.617676,1686.153809 2362.457275,1659.353760 
	C2367.489502,1636.258179 2359.453613,1617.549683 2340.209717,1602.916382 
z"/>
<path fill="#030303" opacity="1.000000" stroke="none" 
	d="
M2279.319336,1602.416016 
	C2257.947510,1602.436157 2237.266357,1602.232422 2215.702881,1602.019775 
	C2211.185303,1584.610107 2219.259033,1571.399414 2231.295654,1560.678711 
	C2238.878174,1553.925171 2248.215820,1549.047119 2257.067383,1543.839600 
	C2266.506836,1538.285889 2276.455322,1533.598267 2285.904785,1528.060425 
	C2300.832031,1519.312256 2306.245361,1506.294067 2302.953613,1489.224609 
	C2300.287109,1475.400146 2304.573730,1465.680298 2316.316162,1460.232056 
	C2328.985107,1454.353638 2333.035645,1444.005127 2333.616943,1431.319092 
	C2333.843018,1426.387573 2333.653809,1421.437012 2333.653809,1416.796509 
	C2340.439453,1414.174316 2344.511963,1417.508179 2347.638184,1421.280518 
	C2354.619141,1429.704712 2361.211426,1438.471680 2367.538818,1447.398926 
	C2368.743164,1449.098022 2368.742920,1452.419189 2368.042725,1454.586304 
	C2353.222656,1500.454468 2338.224854,1546.265137 2323.234375,1592.078003 
	C2323.039551,1592.673340 2322.492188,1593.153198 2321.514893,1594.516113 
	C2307.283203,1592.641846 2292.920410,1593.826904 2279.319336,1602.416016 
z"/>
<path fill="#070303" opacity="1.000000" stroke="none" 
	d="
M1017.769165,803.335327 
	C1019.085083,802.778564 1020.741516,802.505859 1022.397827,802.506531 
	C1076.041992,802.529419 1129.686035,802.578552 1184.200928,802.719788 
	C1175.054932,823.031677 1165.038208,843.247620 1154.864624,863.780396 
	C1139.426392,859.613037 1126.011353,862.330383 1113.820557,873.757324 
	C1081.886963,850.398560 1049.998291,827.072693 1017.769165,803.335327 
z"/>
<path fill="#060606" opacity="1.000000" stroke="none" 
	d="
M1906.470215,977.213989 
	C1912.748047,965.958496 1921.821411,960.627686 1933.867676,961.067444 
	C1949.514282,961.638672 1962.147583,975.544250 1961.397949,990.885681 
	C1960.628418,1006.631348 1947.527222,1018.868103 1931.741699,1018.584717 
	C1915.956909,1018.301331 1903.369385,1005.435242 1903.766357,989.540649 
	C1903.863403,985.651489 1905.307861,981.795837 1906.470215,977.213989 
z"/>
<path fill="#050505" opacity="1.000000" stroke="none" 
	d="
M1168.475708,909.659363 
	C1161.409058,926.754883 1143.031250,930.912354 1131.796753,926.409729 
	C1117.958008,920.863464 1110.223267,907.007385 1113.668823,892.725586 
	C1117.117920,878.429077 1130.906128,868.602051 1144.888306,870.475159 
	C1159.990601,872.498352 1170.785034,884.993774 1170.281128,900.129578 
	C1170.183350,903.068420 1169.288452,905.980652 1168.475708,909.659363 
z"/>
<path fill="#060606" opacity="1.000000" stroke="none" 
	d="
M896.023682,1012.351929 
	C874.098145,1012.380127 859.471252,987.794800 872.186279,967.964417 
	C879.085938,957.203613 892.160950,952.466736 904.442444,956.017212 
	C916.405334,959.475586 925.188965,971.063232 925.315369,983.553528 
	C925.436462,995.525879 917.294678,1007.049072 905.670166,1010.916931 
	C902.888733,1011.842346 899.817688,1011.897522 896.023682,1012.351929 
z"/>
<path fill="#FE0809" opacity="1.000000" stroke="none" 
	d="
M1640.442261,510.568726 
	C1620.718628,526.360535 1597.637573,513.241333 1593.517456,496.222931 
	C1590.658325,484.412506 1595.267700,471.539978 1605.536865,464.791504 
	C1616.035767,457.892090 1629.133911,458.436157 1639.149536,466.187775 
	C1648.948853,473.772034 1653.014771,486.992706 1648.402832,498.406525 
	C1646.705811,502.606232 1643.513794,506.201874 1640.442261,510.568726 
z"/>
<path fill="#050505" opacity="1.000000" stroke="none" 
	d="
M1907.119629,1511.017090 
	C1910.928833,1495.241089 1920.180176,1486.632812 1933.579102,1485.774292 
	C1946.545898,1484.943481 1957.952637,1492.193604 1962.602051,1504.221191 
	C1968.515503,1519.518921 1960.089355,1537.036865 1944.443359,1541.973267 
	C1928.727417,1546.931763 1911.741699,1537.563965 1907.905273,1521.630127 
	C1907.141235,1518.457153 1907.253662,1515.073120 1907.119629,1511.017090 
z"/>
<path fill="#050505" opacity="1.000000" stroke="none" 
	d="
M667.069824,872.460938 
	C682.212952,885.989563 683.927002,903.068481 672.016907,915.840576 
	C662.119202,926.454895 646.725525,928.235840 634.795715,920.147095 
	C622.445862,911.773315 618.518250,896.347656 625.371094,883.131409 
	C631.992493,870.361511 646.505249,864.441467 660.144165,869.056213 
	C662.328003,869.795166 664.342041,871.036072 667.069824,872.460938 
z"/>
<path fill="#FE0708" opacity="1.000000" stroke="none" 
	d="
M801.917480,653.712952 
	C791.670532,666.597473 772.199768,667.868835 760.337891,657.212402 
	C749.358093,647.348450 747.434448,631.314819 755.867004,619.218140 
	C764.486572,606.853394 780.927307,603.182007 793.949219,610.714111 
	C806.533142,617.992920 811.715332,633.671692 805.875366,647.106873 
	C804.957092,649.219543 803.548401,651.119019 801.917480,653.712952 
z"/>
<path fill="#136532" opacity="1.000000" stroke="none" 
	d="
M1341.582275,1755.998291 
	C1340.527588,1773.197144 1327.785767,1783.686157 1315.175415,1784.690674 
	C1300.241455,1785.880127 1286.483398,1775.612549 1284.102661,1761.083374 
	C1281.669678,1746.233521 1291.023438,1731.600342 1305.161377,1728.139404 
	C1319.885376,1724.534912 1334.899658,1732.424561 1339.688721,1746.444458 
	C1340.647461,1749.250977 1340.967285,1752.275513 1341.582275,1755.998291 
z"/>
<path fill="#FE0708" opacity="1.000000" stroke="none" 
	d="
M1298.543457,612.943848 
	C1276.656372,611.152161 1264.024780,586.657532 1276.813965,567.875977 
	C1284.217407,557.003784 1298.186646,552.605896 1310.338623,557.119202 
	C1322.343262,561.577759 1330.456909,573.708557 1329.525513,585.805664 
	C1328.517456,598.897766 1319.038086,609.750244 1306.243896,612.315247 
	C1303.978149,612.769531 1301.627563,612.801025 1298.543457,612.943848 
z"/>
<path fill="#126532" opacity="1.000000" stroke="none" 
	d="
M1588.339844,1825.880615 
	C1602.026245,1819.357788 1618.519531,1824.457397 1626.053711,1837.958740 
	C1633.328003,1850.994873 1629.256958,1867.509033 1616.770752,1875.834473 
	C1604.722900,1883.867798 1588.235107,1881.535889 1578.812988,1870.466431 
	C1569.102905,1859.058594 1569.750732,1842.068359 1580.465942,1831.505981 
	C1582.569214,1829.432861 1585.235352,1827.930786 1588.339844,1825.880615 
z"/>
<path fill="#FE0708" opacity="1.000000" stroke="none" 
	d="
M308.216614,385.879272 
	C298.942932,376.615295 295.640594,366.400696 299.898224,354.429291 
	C305.366455,339.053986 322.234375,331.315552 337.272919,337.119904 
	C352.792358,343.109833 360.111908,360.709747 353.361633,375.805206 
	C346.810059,390.456299 329.362091,396.912506 314.697968,390.023651 
	C312.613129,389.044220 310.755585,387.581055 308.216614,385.879272 
z"/>
<path fill="#FE0607" opacity="1.000000" stroke="none" 
	d="
M2069.651367,802.737122 
	C2063.095703,790.634766 2064.463135,778.325195 2073.408936,768.907410 
	C2082.253662,759.596130 2095.946533,757.231628 2107.292480,763.056396 
	C2118.671387,768.898132 2124.747559,781.138855 2122.430664,793.926147 
	C2121.963867,796.502869 2120.843262,798.961121 2118.663574,802.004822 
	C2101.419189,802.602844 2085.535400,802.669983 2069.651367,802.737122 
z"/>
<path fill="#DAB04F" opacity="1.000000" stroke="none" 
	d="
M2320.961914,1629.083862 
	C2319.910156,1633.390381 2319.122559,1636.931641 2317.972168,1642.103760 
	C2323.653809,1641.491577 2328.550293,1640.963989 2333.582031,1640.421753 
	C2332.596680,1648.141235 2316.481934,1681.059570 2307.924072,1692.937744 
	C2307.122559,1682.333740 2306.383057,1672.551392 2305.601318,1662.208252 
	C2301.185791,1662.870361 2297.344482,1663.446411 2292.284912,1664.205078 
	C2289.306152,1650.693604 2290.680176,1637.242065 2289.894043,1623.181274 
	C2301.140381,1619.990723 2311.539062,1616.268188 2323.937256,1615.768433 
	C2322.862305,1620.744263 2322.043945,1624.531494 2320.961914,1629.083862 
z"/>
<path fill="#DAB050" opacity="1.000000" stroke="none" 
	d="
M1626.406738,2230.513672 
	C1623.987915,2235.178955 1621.893066,2239.175537 1619.798340,2243.172119 
	C1619.229492,2243.023926 1618.660767,2242.875732 1618.091919,2242.727783 
	C1617.306641,2233.344971 1616.521484,2223.962402 1615.676636,2213.868164 
	C1611.336304,2214.439209 1607.515503,2214.941895 1602.737305,2215.570557 
	C1599.490234,2202.285889 1600.400269,2188.838867 1600.234985,2174.310059 
	C1610.987671,2171.551270 1621.458984,2168.864746 1632.872803,2165.936279 
	C1633.920288,2175.774414 1628.686768,2183.793945 1628.469360,2193.475342 
	C1633.809204,2192.979492 1638.765381,2192.519043 1646.039062,2191.843506 
	C1638.994141,2205.708984 1632.862427,2217.777100 1626.406738,2230.513672 
z"/>
<path fill="#DAAF4E" opacity="1.000000" stroke="none" 
	d="
M1309.950684,262.318085 
	C1305.283325,262.561951 1301.429443,263.107941 1296.599854,263.792206 
	C1296.599854,249.858444 1296.599854,236.668503 1296.599854,222.177933 
	C1306.235718,219.715179 1316.403320,217.116547 1327.062012,214.392380 
	C1330.340454,224.016571 1322.942139,231.999268 1324.374756,241.644089 
	C1329.291748,241.076874 1334.010986,240.532471 1338.866943,239.972275 
	C1337.933472,247.654816 1319.366089,284.911285 1312.989746,292.131409 
	C1312.235596,282.130585 1311.500000,272.375397 1309.950684,262.318085 
z"/>
<path fill="#DAAF4E" opacity="1.000000" stroke="none" 
	d="
M588.998169,264.091766 
	C587.935303,254.295883 587.532104,244.735413 587.102295,234.545120 
	C581.939758,235.138687 577.794373,235.615295 573.088318,236.156387 
	C572.646423,233.904724 572.064331,232.073669 571.960083,230.215790 
	C571.437805,220.910522 571.014893,211.599350 570.613281,202.287811 
	C570.469849,198.963196 569.972595,195.275681 574.374817,194.149567 
	C583.671570,191.771408 593.008545,189.550018 602.832947,187.140732 
	C605.392517,196.779373 598.626038,204.483185 600.103271,214.163116 
	C605.005127,213.551636 609.683167,212.968094 614.500549,212.367157 
	C613.625671,219.647491 598.517700,250.948792 588.998169,264.091766 
z"/>
<path fill="#D9AF4E" opacity="1.000000" stroke="none" 
	d="
M264.642395,964.566650 
	C262.760529,968.103333 261.216431,970.992310 258.543427,975.993408 
	C257.753235,964.217041 257.108978,954.615601 256.392822,943.942749 
	C251.538376,944.488892 247.447983,944.949097 242.218445,945.537415 
	C241.498886,931.913147 240.791855,918.526184 240.039948,904.289124 
	C251.501617,901.515991 262.001617,898.975525 274.309296,895.997742 
	C272.244324,905.892761 270.477814,914.357544 268.513153,923.771790 
	C274.175079,923.149841 278.904724,922.630249 284.286133,922.039124 
	C283.381134,930.654541 278.405182,936.685669 275.335358,943.449036 
	C272.177673,950.405823 268.455353,957.106323 264.642395,964.566650 
z"/>
<path fill="#D9AF4D" opacity="1.000000" stroke="none" 
	d="
M1173.859619,1289.075195 
	C1173.828857,1276.628174 1173.828857,1265.056763 1173.828857,1252.024780 
	C1183.320557,1249.667725 1193.810181,1247.062744 1205.022949,1244.278320 
	C1206.868652,1253.989990 1200.782715,1261.909424 1201.140625,1271.651245 
	C1206.253174,1271.088867 1211.274902,1270.536621 1216.462402,1269.966064 
	C1215.378174,1276.664185 1199.992310,1308.213745 1190.442017,1323.274780 
	C1189.881470,1312.246338 1189.393311,1302.641479 1188.835327,1291.661743 
	C1184.733765,1292.359863 1181.628662,1292.827271 1178.550171,1293.430054 
	C1175.641357,1293.999756 1174.119141,1292.884277 1173.859619,1289.075195 
z"/>
<path fill="#FE0809" opacity="1.000000" stroke="none" 
	d="
M2183.708984,802.678345 
	C2166.169922,802.928223 2148.960693,802.704163 2130.804688,802.401855 
	C2130.699707,796.785767 2131.541748,791.247925 2132.507324,784.896240 
	C2152.442871,780.568237 2172.672119,776.176514 2194.731934,771.387390 
	C2190.820068,782.661316 2187.429443,792.432800 2183.708984,802.678345 
z"/>
<path fill="#180808" opacity="1.000000" stroke="none" 
	d="
M2069.798340,803.380615 
	C2085.535400,802.669983 2101.419189,802.602844 2118.166992,802.661682 
	C2106.635254,822.443054 2084.168457,823.009033 2069.798340,803.380615 
z"/>
<path fill="#020101" opacity="1.000000" stroke="none" 
	d="
M1725.945312,1443.683105 
	C1726.163086,1444.031372 1725.221313,1444.165894 1725.221313,1444.165894 
	C1725.221313,1444.165894 1724.748779,1443.340820 1724.592773,1442.892822 
	C1725.043091,1442.485840 1725.473389,1442.782593 1725.945312,1443.683105 
z"/>
<path fill="#020100" opacity="1.000000" stroke="none" 
	d="
M1737.994385,1236.225830 
	C1752.898804,1262.090210 1753.662842,1287.408081 1738.211792,1312.463501 
	C1729.496948,1326.595459 1716.959106,1336.746582 1700.926392,1340.897949 
	C1664.583984,1350.308472 1628.004395,1358.802979 1590.741821,1367.859253 
	C1579.583374,1321.469604 1568.577271,1275.712646 1557.437378,1229.400024 
	C1578.860718,1224.179810 1599.166016,1219.195190 1619.491455,1214.293091 
	C1631.777466,1211.329834 1644.247559,1209.021484 1656.368774,1205.502075 
	C1691.211548,1195.385620 1723.362793,1212.709839 1737.994385,1236.225830 
z"/>
<path fill="#020100" opacity="1.000000" stroke="none" 
	d="
M1528.926147,1111.108521 
	C1523.392700,1088.099854 1518.121826,1065.880371 1512.695679,1043.005859 
	C1530.824097,1038.573853 1547.860352,1034.337524 1564.933960,1030.257935 
	C1577.536743,1027.246826 1590.096313,1023.926331 1602.836060,1021.642151 
	C1635.686157,1015.752197 1667.734985,1038.205078 1673.825928,1070.902832 
	C1680.558228,1107.042847 1659.130493,1141.000977 1623.356079,1150.201416 
	C1599.219727,1156.408691 1574.932617,1162.030762 1550.703003,1167.873657 
	C1548.494751,1168.406128 1546.214478,1168.640381 1542.975708,1169.177856 
	C1538.317383,1149.823975 1533.753174,1130.860718 1528.926147,1111.108521 
z"/>
</svg>