<svg version="1.1" id="Layer_1" xmlns="http://www.w3.org/2000/svg" xmlns:xlink="http://www.w3.org/1999/xlink" x="0px" y="0px"
	 width="100%" viewBox="0 0 4800 1830" enable-background="new 0 0 4800 1830" xml:space="preserve">
<path fill="#FFFFFF" opacity="1.000000" stroke="none" 
	d="
M2872.000000,1832.000000 
	C1915.333374,1832.000000 958.666626,1832.000000 2.000000,1832.000000 
	C2.000000,1787.123535 2.000000,1742.468994 2.686913,1697.072144 
	C4.084155,1697.442871 4.991446,1698.476685 5.475418,1699.680786 
	C13.289783,1719.120239 27.281136,1728.626343 48.587669,1728.454468 
	C95.910736,1728.072632 143.244843,1727.908447 190.562180,1728.553833 
	C208.512863,1728.798706 228.346085,1715.476807 232.473236,1694.379639 
	C242.847137,1641.349854 253.352875,1588.345947 263.829224,1535.336304 
	C271.735077,1495.333130 279.962097,1455.390625 287.480621,1415.314941 
	C291.151520,1395.748169 310.445740,1380.175781 331.166992,1380.237427 
	C411.820679,1380.477783 492.475555,1380.303955 573.129944,1380.355713 
	C595.853149,1380.370239 612.970825,1394.516602 617.604858,1416.897461 
	C618.948853,1423.388672 620.025879,1429.934570 621.303284,1436.440063 
	C630.821411,1484.916260 640.364624,1533.387329 649.889099,1581.862305 
	C657.175415,1618.945801 664.331055,1656.055420 671.766846,1693.108887 
	C676.200684,1715.202881 692.447083,1728.323975 714.759216,1728.330933 
	C762.751953,1728.345947 810.762207,1727.564209 858.730103,1728.655762 
	C883.271118,1729.214355 906.779236,1703.700317 900.673889,1676.579834 
	C887.343872,1617.367188 874.359863,1558.076538 861.131104,1498.840942 
	C846.095947,1431.515991 830.919556,1364.222778 815.856567,1296.904053 
	C796.883545,1212.111084 777.978943,1127.302612 759.015381,1042.507568 
	C742.656921,969.360840 726.232849,896.228882 709.883606,823.080139 
	C696.863037,764.824219 683.914429,706.552124 670.929077,648.288330 
	C655.850525,580.632874 640.820496,512.966492 625.663574,445.328522 
	C617.687561,409.735596 609.485596,374.193298 601.496826,337.966614 
	C601.263916,336.371094 600.805969,335.462372 600.591919,334.499451 
	C586.274048,270.087006 571.851807,205.697342 557.745911,141.238449 
	C553.074036,119.889740 533.412720,105.901169 514.075256,106.158195 
	C472.461426,106.711311 430.834961,106.398750 389.214203,106.265732 
	C381.306610,106.240463 374.195648,108.256386 367.441864,112.182449 
	C354.640961,119.623840 349.043182,131.490448 345.985077,145.362366 
	C336.277435,189.397278 326.192322,233.348831 316.414795,277.368530 
	C311.887238,297.752197 307.733856,318.218994 302.974335,339.449585 
	C300.059326,351.253052 297.570557,362.252777 295.103882,373.257416 
	C278.710999,446.392334 262.295624,519.522217 245.941345,592.665771 
	C231.541534,657.068115 217.229828,721.490173 202.846268,785.896118 
	C186.655106,858.395996 170.417435,930.885376 154.217834,1003.383301 
	C136.499008,1082.680176 118.806396,1161.982788 101.091476,1241.280518 
	C85.979843,1308.924927 70.861176,1376.567871 55.730309,1444.208130 
	C39.152317,1518.317627 22.579443,1592.428223 5.876782,1666.509644 
	C5.278543,1669.162842 3.322988,1671.510132 2.000011,1674.000000 
	C2.000000,1116.766602 2.000000,559.533264 2.000000,2.000000 
	C958.061829,2.000000 1914.123657,2.000000 2871.223389,2.929713 
	C2872.261230,95.062790 2872.261230,186.266159 2872.261230,278.309967 
	C2856.861572,278.309967 2842.600098,278.309937 2828.338623,278.309937 
	C2814.339600,278.309937 2800.340576,278.309937 2786.341553,278.309937 
	C2772.009277,278.309937 2757.676758,278.309937 2743.344482,278.309937 
	C2729.345459,278.309937 2715.346436,278.309937 2701.347412,278.309937 
	C2687.015137,278.309937 2672.682861,278.309937 2658.350586,278.309937 
	C2644.018311,278.309937 2629.685791,278.309937 2615.353516,278.309937 
	C2601.354492,278.309937 2587.355713,278.280762 2573.356689,278.318146 
	C2559.180908,278.355957 2544.992920,278.141479 2531.013184,278.469177 
	C2528.834961,302.766541 2529.820801,450.278046 2532.213623,457.690033 
	C2535.719238,457.690033 2539.372070,457.690033 2543.024902,457.690033 
	C2575.355957,457.690063 2607.688232,457.538696 2640.017090,457.798187 
	C2647.942383,457.861816 2656.004395,458.561707 2663.752197,460.174591 
	C2707.970215,469.379303 2736.562988,510.147766 2736.500000,549.633545 
	C2736.126221,783.949707 2736.103760,1018.267090 2736.500244,1252.583130 
	C2736.576660,1297.634888 2698.450439,1343.280273 2645.482178,1343.639526 
	C2610.819336,1343.874634 2576.154053,1343.670898 2541.489746,1343.703735 
	C2537.970215,1343.707153 2534.450928,1343.986328 2530.909668,1344.138428 
	C2530.909668,1413.709229 2530.909668,1482.203125 2530.909668,1551.925659 
	C2644.911621,1551.925659 2758.326172,1551.925659 2872.315430,1551.925659 
	C2872.315430,1556.115845 2872.315430,1559.076904 2872.315430,1562.037964 
	C2872.315430,1649.365112 2872.318115,1736.692261 2872.302246,1824.019409 
	C2872.301758,1826.679565 2872.105225,1829.339844 2872.000000,1832.000000 
M1274.333984,1239.000122 
	C1274.333984,1095.697754 1274.333862,952.395325 1274.333984,809.092957 
	C1274.333984,806.760132 1274.245605,804.423401 1274.348267,802.095093 
	C1275.711792,771.153625 1297.075073,755.722412 1321.325928,756.211548 
	C1347.975830,756.749146 1374.659180,755.787842 1401.301636,756.486389 
	C1428.409180,757.197144 1449.210693,736.990723 1448.501831,708.932190 
	C1447.753052,679.290955 1448.333984,649.616272 1448.333984,619.956177 
	C1448.333984,618.623108 1448.326904,617.290039 1448.333618,615.957031 
	C1448.455933,591.467712 1425.753296,572.398499 1404.779175,573.368408 
	C1378.175293,574.598694 1351.470215,573.816101 1324.811401,573.588135 
	C1314.853027,573.503052 1304.937988,572.375916 1296.132812,566.927490 
	C1280.452881,557.225098 1274.258423,542.491516 1274.380737,524.765137 
	C1274.681641,481.165344 1275.243408,437.567413 1275.649658,393.968262 
	C1275.769409,381.120605 1278.822510,368.960724 1284.316772,357.452301 
	C1291.842285,341.689209 1304.653687,332.191345 1321.424561,328.358521 
	C1328.800903,326.672699 1336.517456,325.915436 1344.097168,325.787781 
	C1364.420288,325.445587 1384.753662,325.789520 1405.081421,325.640045 
	C1428.827637,325.465454 1447.926514,307.450928 1448.186279,283.642792 
	C1448.677368,238.658157 1448.350098,193.664337 1448.320923,148.674347 
	C1448.305542,124.770111 1426.974854,105.549301 1404.540527,106.206100 
	C1384.562012,106.791000 1364.547852,106.616501 1344.558594,106.259941 
	C1316.223389,105.754517 1288.309448,108.788284 1260.501465,114.095047 
	C1207.307861,124.246239 1161.541870,148.197556 1123.713135,186.916992 
	C1100.024048,211.163712 1081.612061,239.085251 1067.869263,270.103058 
	C1049.827271,310.823730 1042.538696,353.815857 1041.814331,397.945923 
	C1041.125366,439.925262 1041.720215,481.924957 1041.597290,523.915283 
	C1041.581909,529.176514 1041.078735,534.525757 1040.033203,539.678284 
	C1036.559814,556.796326 1021.600281,570.592041 1004.108826,572.201416 
	C992.232605,573.294006 980.232056,572.970215 968.321167,573.781128 
	C963.114746,574.135498 957.568970,574.815369 952.910645,576.948853 
	C936.651001,584.395752 927.807922,597.302551 927.712952,615.415710 
	C927.545227,647.407776 928.561340,679.434937 927.358643,711.382568 
	C926.523682,733.561523 945.142944,757.348633 972.778442,756.381287 
	C981.432556,756.078369 990.106262,756.334290 998.770996,756.334106 
	C1009.950195,756.333923 1019.435425,760.474182 1027.527344,768.058960 
	C1038.212280,778.074219 1041.722168,790.691711 1041.718750,804.955017 
	C1041.648560,1096.890137 1041.666016,1388.825317 1041.666260,1680.760498 
	C1041.666260,1683.759888 1041.543579,1686.765503 1041.692627,1689.757568 
	C1042.722290,1710.412964 1060.882568,1728.224243 1081.519653,1728.284790 
	C1132.507935,1728.434570 1183.497314,1728.415039 1234.484985,1728.201782 
	C1239.322510,1728.181519 1244.540649,1727.163086 1248.916992,1725.156982 
	C1265.533813,1717.538818 1274.368774,1704.609619 1274.362305,1685.901489 
	C1274.311401,1537.601074 1274.333984,1389.300659 1274.333984,1239.000122 
M1565.124023,1728.335327 
	C1614.114624,1728.335327 1663.105469,1728.269897 1712.095581,1728.407104 
	C1719.290161,1728.427246 1725.944458,1727.256836 1732.092285,1723.458008 
	C1746.183105,1714.750854 1751.707642,1701.762451 1751.703491,1685.624634 
	C1751.646851,1470.663574 1751.685181,1255.702515 1751.635498,1040.741455 
	C1751.630493,1019.105286 1753.279663,997.652771 1757.724731,976.469421 
	C1772.727539,904.973145 1812.822998,852.205444 1877.276489,818.249207 
	C1904.924683,803.683289 1935.222778,797.351440 1966.058716,793.886597 
	C1976.241455,792.742432 1986.576660,792.591736 1996.839233,792.639771 
	C2004.771729,792.676880 2012.695190,794.170349 2020.630249,794.247192 
	C2038.946411,794.424805 2053.931396,782.454285 2058.108154,764.619324 
	C2059.006348,760.785034 2059.593750,756.778687 2059.601562,752.850159 
	C2059.699707,702.526123 2059.760254,652.201599 2059.624023,601.877747 
	C2059.560303,578.376465 2042.667236,561.534363 2019.402466,561.758362 
	C2011.139526,561.837891 2002.851074,562.702759 1994.635864,563.711548 
	C1953.963623,568.705994 1915.290894,580.260803 1880.023926,601.361877 
	C1857.233276,614.998108 1835.018799,629.658813 1813.099243,644.668274 
	C1797.899536,655.076355 1779.596680,653.330505 1767.588379,644.251526 
	C1757.030518,636.269226 1751.956055,625.707458 1751.632080,612.546875 
	C1751.030029,588.083923 1730.477051,572.986633 1711.265503,573.340088 
	C1659.625610,574.290100 1607.956909,573.691772 1556.299561,573.648071 
	C1540.711914,573.634888 1529.972168,581.398071 1522.514893,594.426819 
	C1517.881348,602.522095 1517.628784,611.478271 1517.629883,620.533752 
	C1517.670898,974.136414 1517.663696,1327.739136 1517.677734,1681.341797 
	C1517.677856,1685.000488 1517.677124,1688.678101 1518.020752,1692.314331 
	C1518.995483,1702.627563 1523.261841,1711.264771 1530.884277,1718.464111 
	C1540.112793,1727.179932 1551.133057,1729.231934 1565.124023,1728.335327 
M2385.666260,1021.000122 
	C2385.666260,888.048096 2385.666504,755.096008 2385.666260,622.143982 
	C2385.666260,619.811462 2385.737549,617.476440 2385.653809,615.146912 
	C2384.803223,591.460388 2366.790283,573.702271 2343.431396,573.679260 
	C2293.449219,573.630127 2243.467041,573.719055 2193.485352,573.603027 
	C2186.279297,573.586304 2179.695557,575.129822 2173.560303,578.819275 
	C2157.353027,588.565369 2151.570312,603.324280 2151.576416,621.696289 
	C2151.695801,974.236450 2151.662598,1326.776611 2151.693359,1679.316772 
	C2151.693848,1683.633545 2151.816406,1687.993530 2152.410156,1692.259766 
	C2155.164062,1712.048828 2172.548828,1728.232910 2191.552246,1728.286255 
	C2242.866699,1728.430420 2294.182861,1728.473877 2345.495605,1728.141357 
	C2351.222412,1728.104370 2357.466797,1726.407593 2362.551025,1723.732178 
	C2378.813477,1715.174194 2385.698975,1700.898193 2385.695312,1682.763550 
	C2385.650391,1462.842407 2385.666260,1242.921387 2385.666260,1021.000122 
M2151.660156,153.301147 
	C2151.660156,198.633286 2151.649658,243.965439 2151.680420,289.297577 
	C2151.682861,292.953522 2151.867920,296.616608 2152.136719,300.263977 
	C2153.764648,322.344086 2171.623291,339.375153 2194.713135,339.557587 
	C2244.041992,339.947357 2293.377930,339.937500 2342.707275,339.565460 
	C2366.980225,339.382446 2385.553467,320.262482 2385.626221,296.187012 
	C2385.774658,247.188797 2385.827881,198.189117 2385.604248,149.191483 
	C2385.491699,124.530663 2366.974854,106.356461 2342.590332,106.335480 
	C2292.925049,106.292755 2243.259766,106.365723 2193.594482,106.284599 
	C2184.219482,106.269295 2175.967041,109.280052 2168.703857,114.884407 
	C2156.801270,124.068840 2151.675049,136.581863 2151.660156,153.301147 
z"/>
<path fill="#FFFFFF" opacity="1.000000" stroke="none" 
	d="
M4802.000000,1700.000000 
	C4802.000000,1743.976562 4802.000000,1787.953125 4802.000000,1832.000000 
	C4310.618652,1832.000000 3819.237061,1832.000000 3327.058594,1831.070312 
	C3326.261475,1737.605713 3326.261475,1645.070923 3326.261475,1552.283691 
	C3329.467285,1552.016479 3331.412109,1551.728394 3333.359619,1551.710571 
	C3385.964600,1551.228760 3438.572021,1550.928833 3491.173340,1550.198608 
	C3503.097168,1550.032959 3515.098145,1549.049683 3526.895508,1547.306763 
	C3569.031494,1541.080811 3608.968750,1527.943726 3646.629639,1507.951782 
	C3685.552490,1487.289917 3719.520020,1460.284668 3748.783447,1427.459473 
	C3772.394043,1400.974731 3791.570312,1371.487915 3806.581299,1339.274902 
	C3825.020996,1299.704224 3836.692139,1258.257568 3839.460205,1214.721069 
	C3841.021729,1190.156860 3839.999268,1165.433960 3840.355469,1140.785522 
	C3840.591797,1124.433716 3839.036865,1108.290405 3836.148926,1092.211670 
	C3824.622803,1028.038330 3795.571533,972.859436 3749.887451,926.675964 
	C3721.062256,897.535522 3687.542725,874.840942 3649.369141,859.375122 
	C3642.544678,856.610352 3635.753418,853.763977 3628.755371,850.876282 
	C3629.693848,849.613647 3629.987305,848.961365 3630.488770,848.591919 
	C3632.095703,847.407776 3633.774902,846.321777 3635.434570,845.209900 
	C3669.122559,822.638916 3696.355225,793.960449 3717.253662,759.191956 
	C3737.639404,725.276550 3750.118896,688.548462 3753.415771,649.300659 
	C3757.524902,600.379639 3751.728760,552.407104 3734.464844,506.104889 
	C3698.668213,410.098053 3633.195557,342.672821 3538.812988,303.316284 
	C3497.817871,286.221832 3454.685791,279.113251 3410.468262,278.383057 
	C3385.812744,277.975891 3361.144775,278.330078 3336.482422,278.284943 
	C3333.296631,278.279144 3330.111084,277.935303 3326.316162,277.712189 
	C3326.316162,273.166260 3326.316406,269.550720 3326.316406,265.935211 
	C3326.316406,181.949814 3326.320068,97.964424 3326.302246,13.979038 
	C3326.301514,9.986005 3326.105225,5.993013 3326.000000,2.000000 
	C3817.797119,2.000000 4309.594238,2.000000 4802.000000,2.000000 
	C4802.000000,201.381073 4802.000000,400.762787 4801.314453,600.845093 
	C4796.195312,585.981750 4780.849121,573.939636 4764.476562,573.719788 
	C4746.485840,573.478210 4728.483887,573.924622 4710.498535,573.531677 
	C4703.615723,573.381226 4696.506348,572.593262 4689.948242,570.613708 
	C4670.645020,564.787415 4660.199219,546.190735 4660.228516,528.003845 
	C4660.430664,403.712097 4660.335449,279.419861 4660.334473,155.127792 
	C4660.334473,152.128815 4660.486816,149.119217 4660.291992,146.132599 
	C4658.916016,125.011230 4639.954590,106.127663 4618.082520,106.243835 
	C4568.434082,106.507545 4518.782715,106.351074 4469.132812,106.308434 
	C4457.928223,106.298813 4448.628418,110.409370 4440.423828,117.987129 
	C4429.833496,127.769157 4426.322754,140.049286 4426.324219,153.881760 
	C4426.339355,279.173523 4426.353516,404.465271 4426.314941,529.757019 
	C4426.308105,552.263367 4411.720215,569.537659 4389.509766,572.139404 
	C4377.029297,573.601440 4364.307617,572.880615 4351.744141,573.813171 
	C4345.926758,574.245056 4339.749023,575.280579 4334.563965,577.769653 
	C4318.366211,585.545593 4310.483398,599.136780 4310.382324,616.968384 
	C4310.204102,648.290283 4310.672852,679.618835 4310.222656,710.935303 
	C4309.877441,734.949280 4327.943359,756.673706 4355.273438,756.354065 
	C4364.936035,756.241028 4374.601074,756.290466 4384.264160,756.350220 
	C4392.418945,756.400635 4399.954102,758.639954 4406.787109,763.127258 
	C4420.434570,772.089539 4426.423828,784.730652 4426.414551,801.054321 
	C4426.291992,1014.316833 4426.312988,1227.579346 4426.389648,1440.841919 
	C4426.393555,1452.113525 4427.405762,1463.381470 4427.615234,1474.657227 
	C4428.075195,1499.415771 4433.229980,1523.391968 4439.943359,1547.025879 
	C4453.237793,1593.831421 4476.829590,1634.630737 4514.131348,1666.311523 
	C4559.204590,1704.592285 4612.304199,1724.025513 4670.937012,1727.398193 
	C4701.821289,1729.174683 4732.868652,1728.100586 4763.842285,1728.343506 
	C4774.084473,1728.423828 4782.905762,1724.463135 4789.773438,1717.379150 
	C4794.643066,1712.356201 4797.979004,1705.846191 4802.000000,1700.000000 
M4236.334961,1559.000122 
	C4236.334961,1247.053223 4236.336914,935.106384 4236.312500,623.159485 
	C4236.312500,618.839905 4236.275879,614.482483 4235.741211,610.207092 
	C4232.946289,587.863831 4212.518066,573.137207 4194.173340,573.409119 
	C4144.192871,574.150269 4094.193848,573.761902 4044.202881,573.577576 
	C4034.737061,573.542725 4026.605469,576.395691 4019.240967,582.008728 
	C4006.511230,591.711487 4002.280518,605.016052 4002.283447,620.493713 
	C4002.348389,974.100037 4002.333496,1327.706421 4002.333496,1681.312744 
	C4002.333496,1683.312378 4002.255371,1685.315674 4002.346680,1687.311157 
	C4003.431641,1711.033081 4021.361328,1728.309082 4045.020264,1728.325317 
	C4095.011719,1728.359863 4145.003418,1728.251587 4194.994629,1728.410522 
	C4204.459961,1728.440674 4212.568359,1725.591187 4219.792480,1719.686768 
	C4231.410156,1710.191040 4236.442383,1697.871704 4236.387207,1682.979248 
	C4236.235840,1642.320068 4236.334961,1601.660034 4236.334961,1559.000122 
M4117.000000,106.324173 
	C4093.674805,106.324173 4070.349609,106.314674 4047.024414,106.326729 
	C4021.167480,106.340088 4002.469727,124.751198 4002.374268,150.869949 
	C4002.198730,198.852310 4002.227539,246.836029 4002.362305,294.818634 
	C4002.434570,320.520142 4021.466553,339.563141 4047.160400,339.636383 
	C4095.143066,339.773132 4143.127441,339.806702 4191.108398,339.513184 
	C4197.250977,339.475647 4203.763184,338.162994 4209.444336,335.832672 
	C4227.812012,328.298889 4236.139160,313.622437 4236.280273,294.227448 
	C4236.488770,265.572479 4236.333984,236.914825 4236.333984,208.258316 
	C4236.333496,189.265045 4236.522461,170.269455 4236.288574,151.279068 
	C4235.956543,124.293777 4217.716797,106.340668 4190.974609,106.326790 
	C4166.982910,106.314339 4142.991699,106.324196 4117.000000,106.324173 
z"/>
<path fill="#FAAB01" opacity="1.000000" stroke="none" 
	d="
M3325.062744,2.000000 
	C3326.105225,5.993013 3326.301514,9.986005 3326.302246,13.979038 
	C3326.320068,97.964424 3326.316406,181.949814 3326.316406,265.935211 
	C3326.316406,269.550720 3326.316162,273.166260 3326.316162,277.712189 
	C3330.111084,277.935303 3333.296631,278.279144 3336.482422,278.284943 
	C3361.144775,278.330078 3385.812744,277.975891 3410.468262,278.383057 
	C3454.685791,279.113251 3497.817871,286.221832 3538.812988,303.316284 
	C3633.195557,342.672821 3698.668213,410.098053 3734.464844,506.104889 
	C3751.728760,552.407104 3757.524902,600.379639 3753.415771,649.300659 
	C3750.118896,688.548462 3737.639404,725.276550 3717.253662,759.191956 
	C3696.355225,793.960449 3669.122559,822.638916 3635.434570,845.209900 
	C3633.774902,846.321777 3632.095703,847.407776 3630.488770,848.591919 
	C3629.987305,848.961365 3629.693848,849.613647 3628.755371,850.876282 
	C3635.753418,853.763977 3642.544678,856.610352 3649.369141,859.375122 
	C3687.542725,874.840942 3721.062256,897.535522 3749.887451,926.675964 
	C3795.571533,972.859436 3824.622803,1028.038330 3836.148926,1092.211670 
	C3839.036865,1108.290405 3840.591797,1124.433716 3840.355469,1140.785522 
	C3839.999268,1165.433960 3841.021729,1190.156860 3839.460205,1214.721069 
	C3836.692139,1258.257568 3825.020996,1299.704224 3806.581299,1339.274902 
	C3791.570312,1371.487915 3772.394043,1400.974731 3748.783447,1427.459473 
	C3719.520020,1460.284668 3685.552490,1487.289917 3646.629639,1507.951782 
	C3608.968750,1527.943726 3569.031494,1541.080811 3526.895508,1547.306763 
	C3515.098145,1549.049683 3503.097168,1550.032959 3491.173340,1550.198608 
	C3438.572021,1550.928833 3385.964600,1551.228760 3333.359619,1551.710571 
	C3331.412109,1551.728394 3329.467285,1552.016479 3326.261475,1552.283691 
	C3326.261475,1645.070923 3326.261475,1737.605713 3326.130859,1831.070312 
	C3274.624756,1832.000000 3223.249756,1832.000000 3171.068604,1831.070312 
	C3170.262695,1737.619507 3170.262695,1645.098145 3170.262695,1552.732300 
	C3155.734863,1550.753784 3036.037598,1551.325806 3028.314209,1553.432495 
	C3028.314209,1556.854126 3028.314209,1560.476440 3028.314209,1564.098755 
	C3028.314209,1649.406616 3028.318604,1734.714355 3028.301025,1820.022217 
	C3028.300049,1824.014771 3028.104736,1828.007446 3028.000000,1832.000000 
	C2976.624756,1832.000000 2925.249756,1832.000000 2872.937256,1832.000000 
	C2872.105225,1829.339844 2872.301758,1826.679565 2872.302246,1824.019409 
	C2872.318115,1736.692261 2872.315430,1649.365112 2872.315430,1562.037964 
	C2872.315430,1559.076904 2872.315430,1556.115845 2872.315430,1551.925659 
	C2758.326172,1551.925659 2644.911621,1551.925659 2530.909668,1551.925659 
	C2530.909668,1482.203125 2530.909668,1413.709229 2530.909668,1344.138428 
	C2534.450928,1343.986328 2537.970215,1343.707153 2541.489746,1343.703735 
	C2576.154053,1343.670898 2610.819336,1343.874634 2645.482178,1343.639526 
	C2698.450439,1343.280273 2736.576660,1297.634888 2736.500244,1252.583130 
	C2736.103760,1018.267090 2736.126221,783.949707 2736.500000,549.633545 
	C2736.562988,510.147766 2707.970215,469.379303 2663.752197,460.174591 
	C2656.004395,458.561707 2647.942383,457.861816 2640.017090,457.798187 
	C2607.688232,457.538696 2575.355957,457.690063 2543.024902,457.690033 
	C2539.372070,457.690033 2535.719238,457.690033 2532.213623,457.690033 
	C2529.820801,450.278046 2528.834961,302.766541 2531.013184,278.469177 
	C2544.992920,278.141479 2559.180908,278.355957 2573.356689,278.318146 
	C2587.355713,278.280762 2601.354492,278.309937 2615.353516,278.309937 
	C2629.685791,278.309937 2644.018311,278.309937 2658.350586,278.309937 
	C2672.682861,278.309937 2687.015137,278.309937 2701.347412,278.309937 
	C2715.346436,278.309937 2729.345459,278.309937 2743.344482,278.309937 
	C2757.676758,278.309937 2772.009277,278.309937 2786.341553,278.309937 
	C2800.340576,278.309937 2814.339600,278.309937 2828.338623,278.309937 
	C2842.600098,278.309937 2856.861572,278.309967 2872.261230,278.309967 
	C2872.261230,186.266159 2872.261230,95.062790 2872.130615,2.929713 
	C2923.375244,2.000000 2974.750244,2.000000 3027.192627,2.929795 
	C3028.259766,95.052368 3028.259766,186.245148 3028.259766,278.307678 
	C3076.282959,278.307281 3123.033447,278.329773 3170.317383,278.291565 
	C3170.317383,274.166260 3170.317383,271.533203 3170.317383,268.900146 
	C3170.317383,182.259705 3170.319580,95.619270 3170.303955,8.978835 
	C3170.303467,6.652540 3170.105713,4.326280 3170.000000,2.000002 
	C3221.375244,2.000000 3272.750244,2.000000 3325.062744,2.000000 
M3484.533203,1233.532837 
	C3498.900635,1201.458496 3503.064941,1168.021851 3498.405029,1133.266357 
	C3491.887207,1084.653442 3469.955566,1044.383179 3432.923828,1012.490173 
	C3399.525391,983.726135 3360.378906,967.212646 3316.465576,966.667419 
	C3223.204346,965.509277 3129.918701,966.308228 3036.643066,966.345154 
	C3034.101074,966.346191 3031.559326,966.806885 3029.012451,967.053650 
	C3029.012451,1092.786621 3029.012451,1217.841553 3029.012451,1343.686401 
	C3033.301270,1343.686401 3036.912598,1343.686401 3040.523926,1343.686401 
	C3130.801514,1343.686401 3221.078857,1343.727417 3311.356445,1343.624512 
	C3320.630859,1343.613892 3329.941895,1343.119629 3339.170410,1342.195190 
	C3360.585449,1340.050171 3380.929688,1333.651855 3399.844238,1323.679565 
	C3437.797852,1303.669189 3466.274902,1274.293823 3484.533203,1233.532837 
M3379.207520,744.269470 
	C3385.901123,735.596008 3393.280518,727.361816 3399.167480,718.171692 
	C3422.469238,681.794128 3431.567627,641.609619 3425.310059,599.160339 
	C3413.298340,517.676025 3345.414551,458.582428 3263.134033,457.835327 
	C3187.508057,457.148651 3111.870850,457.680695 3036.238770,457.727539 
	C3033.741211,457.729095 3031.243896,458.294861 3028.950928,458.572784 
	C3028.950928,573.864441 3028.950928,688.317932 3028.950928,803.685669 
	C3033.168945,803.685669 3036.759521,803.685669 3040.350098,803.685669 
	C3106.986328,803.685669 3173.622803,803.613342 3240.259033,803.720337 
	C3267.875244,803.764709 3294.493896,799.047363 3319.708252,787.630798 
	C3342.052979,777.513733 3361.886719,763.773682 3379.207520,744.269470 
z"/>
<path fill="#010101" opacity="1.000000" stroke="none" 
	d="
M2.000011,1674.916138 
	C3.322988,1671.510132 5.278543,1669.162842 5.876782,1666.509644 
	C22.579443,1592.428223 39.152317,1518.317627 55.730309,1444.208130 
	C70.861176,1376.567871 85.979843,1308.924927 101.091476,1241.280518 
	C118.806396,1161.982788 136.499008,1082.680176 154.217834,1003.383301 
	C170.417435,930.885376 186.655106,858.395996 202.846268,785.896118 
	C217.229828,721.490173 231.541534,657.068115 245.941345,592.665771 
	C262.295624,519.522217 278.710999,446.392334 295.103882,373.257416 
	C297.570557,362.252777 300.059326,351.253052 303.761047,339.693359 
	C401.476288,339.155060 497.968353,339.178406 594.460388,339.170166 
	C596.768860,339.169952 599.077271,338.816711 601.385742,338.628113 
	C609.485596,374.193298 617.687561,409.735596 625.663574,445.328522 
	C640.820496,512.966492 655.850525,580.632874 670.929077,648.288330 
	C683.914429,706.552124 696.863037,764.824219 709.883606,823.080139 
	C726.232849,896.228882 742.656921,969.360840 759.015381,1042.507568 
	C777.978943,1127.302612 796.883545,1212.111084 815.856567,1296.904053 
	C830.919556,1364.222778 846.095947,1431.515991 861.131104,1498.840942 
	C874.359863,1558.076538 887.343872,1617.367188 900.673889,1676.579834 
	C906.779236,1703.700317 883.271118,1729.214355 858.730103,1728.655762 
	C810.762207,1727.564209 762.751953,1728.345947 714.759216,1728.330933 
	C692.447083,1728.323975 676.200684,1715.202881 671.766846,1693.108887 
	C664.331055,1656.055420 657.175415,1618.945801 649.889099,1581.862305 
	C640.364624,1533.387329 630.821411,1484.916260 621.303284,1436.440063 
	C620.025879,1429.934570 618.948853,1423.388672 617.604858,1416.897461 
	C612.970825,1394.516602 595.853149,1380.370239 573.129944,1380.355713 
	C492.475555,1380.303955 411.820679,1380.477783 331.166992,1380.237427 
	C310.445740,1380.175781 291.151520,1395.748169 287.480621,1415.314941 
	C279.962097,1455.390625 271.735077,1495.333130 263.829224,1535.336304 
	C253.352875,1588.345947 242.847137,1641.349854 232.473236,1694.379639 
	C228.346085,1715.476807 208.512863,1728.798706 190.562180,1728.553833 
	C143.244843,1727.908447 95.910736,1728.072632 48.587669,1728.454468 
	C27.281136,1728.626343 13.289783,1719.120239 5.475418,1699.680786 
	C4.991446,1698.476685 4.084155,1697.442871 2.686913,1696.164917 
	C2.000000,1689.277466 2.000000,1682.554810 2.000011,1674.916138 
M374.238708,961.257690 
	C364.583069,1011.387451 354.781342,1061.489746 345.329681,1111.657837 
	C340.136505,1139.222900 365.044739,1160.420898 384.716095,1160.368042 
	C428.704834,1160.250000 472.694275,1160.403931 516.683105,1160.302490 
	C540.518799,1160.247559 561.051208,1137.339600 557.302673,1111.471069 
	C556.305542,1104.589966 554.778564,1097.784180 553.444580,1090.953613 
	C543.660461,1040.852051 533.811340,990.763000 524.084290,940.650391 
	C512.398865,880.448120 500.832306,820.222656 489.180298,760.013855 
	C478.032410,702.410095 466.853851,644.812378 455.643005,587.220886 
	C454.797516,582.877563 453.586060,578.605530 452.149780,572.667480 
	C450.147400,575.424011 448.757263,576.518005 448.484924,577.842041 
	C446.281067,588.556335 444.300720,599.316467 442.226715,610.057739 
	C431.103668,667.664307 419.958405,725.266663 408.850983,782.876282 
	C402.386261,816.406128 396.048431,849.960571 389.521484,883.478271 
	C384.579895,908.854675 379.429535,934.190552 374.238708,961.257690 
z"/>
<path fill="#010101" opacity="1.000000" stroke="none" 
	d="
M4802.000000,1699.062622 
	C4797.979004,1705.846191 4794.643066,1712.356201 4789.773438,1717.379150 
	C4782.905762,1724.463135 4774.084473,1728.423828 4763.842285,1728.343506 
	C4732.868652,1728.100586 4701.821289,1729.174683 4670.937012,1727.398193 
	C4612.304199,1724.025513 4559.204590,1704.592285 4514.131348,1666.311523 
	C4476.829590,1634.630737 4453.237793,1593.831421 4439.943359,1547.025879 
	C4433.229980,1523.391968 4428.075195,1499.415771 4427.615234,1474.657227 
	C4427.405762,1463.381470 4426.393555,1452.113525 4426.389648,1440.841919 
	C4426.312988,1227.579346 4426.291992,1014.316833 4426.414551,801.054321 
	C4426.423828,784.730652 4420.434570,772.089539 4406.787109,763.127258 
	C4399.954102,758.639954 4392.418945,756.400635 4384.264160,756.350220 
	C4374.601074,756.290466 4364.936035,756.241028 4355.273438,756.354065 
	C4327.943359,756.673706 4309.877441,734.949280 4310.222656,710.935303 
	C4310.672852,679.618835 4310.204102,648.290283 4310.382324,616.968384 
	C4310.483398,599.136780 4318.366211,585.545593 4334.563965,577.769653 
	C4339.749023,575.280579 4345.926758,574.245056 4351.744141,573.813171 
	C4364.307617,572.880615 4377.029297,573.601440 4389.509766,572.139404 
	C4411.720215,569.537659 4426.308105,552.263367 4426.314941,529.757019 
	C4426.353516,404.465271 4426.339355,279.173523 4426.324219,153.881760 
	C4426.322754,140.049286 4429.833496,127.769157 4440.423828,117.987129 
	C4448.628418,110.409370 4457.928223,106.298813 4469.132812,106.308434 
	C4518.782715,106.351074 4568.434082,106.507545 4618.082520,106.243835 
	C4639.954590,106.127663 4658.916016,125.011230 4660.291992,146.132599 
	C4660.486816,149.119217 4660.334473,152.128815 4660.334473,155.127792 
	C4660.335449,279.419861 4660.430664,403.712097 4660.228516,528.003845 
	C4660.199219,546.190735 4670.645020,564.787415 4689.948242,570.613708 
	C4696.506348,572.593262 4703.615723,573.381226 4710.498535,573.531677 
	C4728.483887,573.924622 4746.485840,573.478210 4764.476562,573.719788 
	C4780.849121,573.939636 4796.195312,585.981750 4801.314453,601.772888 
	C4802.000000,642.708435 4802.000000,683.416931 4801.604492,725.647949 
	C4799.155762,731.262390 4797.734863,735.861450 4794.933105,739.352478 
	C4785.906738,750.599121 4774.118164,756.512756 4759.404785,756.373779 
	C4741.080566,756.200623 4722.753418,756.300537 4704.427246,756.364685 
	C4701.467773,756.375000 4698.465820,756.570312 4695.556641,757.089722 
	C4672.150391,761.269226 4660.161621,782.393677 4660.184082,801.298950 
	C4660.421875,1001.552795 4660.250488,1201.807129 4660.502441,1402.060913 
	C4660.520508,1416.235352 4662.105957,1430.555420 4664.482910,1444.549438 
	C4669.954590,1476.755737 4689.062500,1497.070923 4721.064453,1503.909546 
	C4733.936523,1506.660156 4747.311523,1507.336060 4760.506836,1508.202637 
	C4771.164551,1508.902710 4780.656738,1511.982666 4788.979492,1518.585083 
	C4795.365723,1523.651245 4798.615234,1530.886108 4802.000000,1538.000000 
	C4802.000000,1591.375122 4802.000000,1644.750244 4802.000000,1699.062622 
z"/>
<path fill="#FEFEFE" opacity="1.000000" stroke="none" 
	d="
M4802.000000,1537.062744 
	C4798.615234,1530.886108 4795.365723,1523.651245 4788.979492,1518.585083 
	C4780.656738,1511.982666 4771.164551,1508.902710 4760.506836,1508.202637 
	C4747.311523,1507.336060 4733.936523,1506.660156 4721.064453,1503.909546 
	C4689.062500,1497.070923 4669.954590,1476.755737 4664.482910,1444.549438 
	C4662.105957,1430.555420 4660.520508,1416.235352 4660.502441,1402.060913 
	C4660.250488,1201.807129 4660.421875,1001.552795 4660.184082,801.298950 
	C4660.161621,782.393677 4672.150391,761.269226 4695.556641,757.089722 
	C4698.465820,756.570312 4701.467773,756.375000 4704.427246,756.364685 
	C4722.753418,756.300537 4741.080566,756.200623 4759.404785,756.373779 
	C4774.118164,756.512756 4785.906738,750.599121 4794.933105,739.352478 
	C4797.734863,735.861450 4799.155762,731.262390 4801.604492,726.585327 
	C4802.000000,996.041809 4802.000000,1266.083618 4802.000000,1537.062744 
z"/>
<path fill="#FFFFFE" opacity="1.000000" stroke="none" 
	d="
M3028.937256,1832.000000 
	C3028.104736,1828.007446 3028.300049,1824.014771 3028.301025,1820.022217 
	C3028.318604,1734.714355 3028.314209,1649.406616 3028.314209,1564.098755 
	C3028.314209,1560.476440 3028.314209,1556.854126 3028.314209,1553.432495 
	C3036.037598,1551.325806 3155.734863,1550.753784 3170.262695,1552.732300 
	C3170.262695,1645.098145 3170.262695,1737.619507 3170.131348,1831.070312 
	C3123.291504,1832.000000 3076.583008,1832.000000 3028.937256,1832.000000 
z"/>
<path fill="#FFFFFE" opacity="1.000000" stroke="none" 
	d="
M3169.062744,2.000002 
	C3170.105713,4.326280 3170.303467,6.652540 3170.303955,8.978835 
	C3170.319580,95.619270 3170.317383,182.259705 3170.317383,268.900146 
	C3170.317383,271.533203 3170.317383,274.166260 3170.317383,278.291565 
	C3123.033447,278.329773 3076.282959,278.307281 3028.259766,278.307678 
	C3028.259766,186.245148 3028.259766,95.052368 3028.129883,2.929795 
	C3074.708496,2.000000 3121.416992,2.000000 3169.062744,2.000002 
z"/>
<path fill="#000000" opacity="1.000000" stroke="none" 
	d="
M1274.333984,1240.000244 
	C1274.333984,1389.300659 1274.311401,1537.601074 1274.362305,1685.901489 
	C1274.368774,1704.609619 1265.533813,1717.538818 1248.916992,1725.156982 
	C1244.540649,1727.163086 1239.322510,1728.181519 1234.484985,1728.201782 
	C1183.497314,1728.415039 1132.507935,1728.434570 1081.519653,1728.284790 
	C1060.882568,1728.224243 1042.722290,1710.412964 1041.692627,1689.757568 
	C1041.543579,1686.765503 1041.666260,1683.759888 1041.666260,1680.760498 
	C1041.666016,1388.825317 1041.648560,1096.890137 1041.718750,804.955017 
	C1041.722168,790.691711 1038.212280,778.074219 1027.527344,768.058960 
	C1019.435425,760.474182 1009.950195,756.333923 998.770996,756.334106 
	C990.106262,756.334290 981.432556,756.078369 972.778442,756.381287 
	C945.142944,757.348633 926.523682,733.561523 927.358643,711.382568 
	C928.561340,679.434937 927.545227,647.407776 927.712952,615.415710 
	C927.807922,597.302551 936.651001,584.395752 952.910645,576.948853 
	C957.568970,574.815369 963.114746,574.135498 968.321167,573.781128 
	C980.232056,572.970215 992.232605,573.294006 1004.108826,572.201416 
	C1021.600281,570.592041 1036.559814,556.796326 1040.033203,539.678284 
	C1041.078735,534.525757 1041.581909,529.176514 1041.597290,523.915283 
	C1041.720215,481.924957 1041.125366,439.925262 1041.814331,397.945923 
	C1042.538696,353.815857 1049.827271,310.823730 1067.869263,270.103058 
	C1081.612061,239.085251 1100.024048,211.163712 1123.713135,186.916992 
	C1161.541870,148.197556 1207.307861,124.246239 1260.501465,114.095047 
	C1288.309448,108.788284 1316.223389,105.754517 1344.558594,106.259941 
	C1364.547852,106.616501 1384.562012,106.791000 1404.540527,106.206100 
	C1426.974854,105.549301 1448.305542,124.770111 1448.320923,148.674347 
	C1448.350098,193.664337 1448.677368,238.658157 1448.186279,283.642792 
	C1447.926514,307.450928 1428.827637,325.465454 1405.081421,325.640045 
	C1384.753662,325.789520 1364.420288,325.445587 1344.097168,325.787781 
	C1336.517456,325.915436 1328.800903,326.672699 1321.424561,328.358521 
	C1304.653687,332.191345 1291.842285,341.689209 1284.316772,357.452301 
	C1278.822510,368.960724 1275.769409,381.120605 1275.649658,393.968262 
	C1275.243408,437.567413 1274.681641,481.165344 1274.380737,524.765137 
	C1274.258423,542.491516 1280.452881,557.225098 1296.132812,566.927490 
	C1304.937988,572.375916 1314.853027,573.503052 1324.811401,573.588135 
	C1351.470215,573.816101 1378.175293,574.598694 1404.779175,573.368408 
	C1425.753296,572.398499 1448.455933,591.467712 1448.333618,615.957031 
	C1448.326904,617.290039 1448.333984,618.623108 1448.333984,619.956177 
	C1448.333984,649.616272 1447.753052,679.290955 1448.501831,708.932190 
	C1449.210693,736.990723 1428.409180,757.197144 1401.301636,756.486389 
	C1374.659180,755.787842 1347.975830,756.749146 1321.325928,756.211548 
	C1297.075073,755.722412 1275.711792,771.153625 1274.348267,802.095093 
	C1274.245605,804.423401 1274.333984,806.760132 1274.333984,809.092957 
	C1274.333862,952.395325 1274.333984,1095.697754 1274.333984,1240.000244 
z"/>
<path fill="#010101" opacity="1.000000" stroke="none" 
	d="
M1564.148926,1728.335327 
	C1551.133057,1729.231934 1540.112793,1727.179932 1530.884277,1718.464111 
	C1523.261841,1711.264771 1518.995483,1702.627563 1518.020752,1692.314331 
	C1517.677124,1688.678101 1517.677856,1685.000488 1517.677734,1681.341797 
	C1517.663696,1327.739136 1517.670898,974.136414 1517.629883,620.533752 
	C1517.628784,611.478271 1517.881348,602.522095 1522.514893,594.426819 
	C1529.972168,581.398071 1540.711914,573.634888 1556.299561,573.648071 
	C1607.956909,573.691772 1659.625610,574.290100 1711.265503,573.340088 
	C1730.477051,572.986633 1751.030029,588.083923 1751.632080,612.546875 
	C1751.956055,625.707458 1757.030518,636.269226 1767.588379,644.251526 
	C1779.596680,653.330505 1797.899536,655.076355 1813.099243,644.668274 
	C1835.018799,629.658813 1857.233276,614.998108 1880.023926,601.361877 
	C1915.290894,580.260803 1953.963623,568.705994 1994.635864,563.711548 
	C2002.851074,562.702759 2011.139526,561.837891 2019.402466,561.758362 
	C2042.667236,561.534363 2059.560303,578.376465 2059.624023,601.877747 
	C2059.760254,652.201599 2059.699707,702.526123 2059.601562,752.850159 
	C2059.593750,756.778687 2059.006348,760.785034 2058.108154,764.619324 
	C2053.931396,782.454285 2038.946411,794.424805 2020.630249,794.247192 
	C2012.695190,794.170349 2004.771729,792.676880 1996.839233,792.639771 
	C1986.576660,792.591736 1976.241455,792.742432 1966.058716,793.886597 
	C1935.222778,797.351440 1904.924683,803.683289 1877.276489,818.249207 
	C1812.822998,852.205444 1772.727539,904.973145 1757.724731,976.469421 
	C1753.279663,997.652771 1751.630493,1019.105286 1751.635498,1040.741455 
	C1751.685181,1255.702515 1751.646851,1470.663574 1751.703491,1685.624634 
	C1751.707642,1701.762451 1746.183105,1714.750854 1732.092285,1723.458008 
	C1725.944458,1727.256836 1719.290161,1728.427246 1712.095581,1728.407104 
	C1663.105469,1728.269897 1614.114624,1728.335327 1564.148926,1728.335327 
z"/>
<path fill="#010101" opacity="1.000000" stroke="none" 
	d="
M2385.666260,1022.000183 
	C2385.666260,1242.921387 2385.650391,1462.842407 2385.695312,1682.763550 
	C2385.698975,1700.898193 2378.813477,1715.174194 2362.551025,1723.732178 
	C2357.466797,1726.407593 2351.222412,1728.104370 2345.495605,1728.141357 
	C2294.182861,1728.473877 2242.866699,1728.430420 2191.552246,1728.286255 
	C2172.548828,1728.232910 2155.164062,1712.048828 2152.410156,1692.259766 
	C2151.816406,1687.993530 2151.693848,1683.633545 2151.693359,1679.316772 
	C2151.662598,1326.776611 2151.695801,974.236450 2151.576416,621.696289 
	C2151.570312,603.324280 2157.353027,588.565369 2173.560303,578.819275 
	C2179.695557,575.129822 2186.279297,573.586304 2193.485352,573.603027 
	C2243.467041,573.719055 2293.449219,573.630127 2343.431396,573.679260 
	C2366.790283,573.702271 2384.803223,591.460388 2385.653809,615.146912 
	C2385.737549,617.476440 2385.666260,619.811462 2385.666260,622.143982 
	C2385.666504,755.096008 2385.666260,888.048096 2385.666260,1022.000183 
z"/>
<path fill="#FC0304" opacity="1.000000" stroke="none" 
	d="
M601.496826,337.966614 
	C599.077271,338.816711 596.768860,339.169952 594.460388,339.170166 
	C497.968353,339.178406 401.476288,339.155060 304.197510,338.891846 
	C307.733856,318.218994 311.887238,297.752197 316.414795,277.368530 
	C326.192322,233.348831 336.277435,189.397278 345.985077,145.362366 
	C349.043182,131.490448 354.640961,119.623840 367.441864,112.182449 
	C374.195648,108.256386 381.306610,106.240463 389.214203,106.265732 
	C430.834961,106.398750 472.461426,106.711311 514.075256,106.158195 
	C533.412720,105.901169 553.074036,119.889740 557.745911,141.238449 
	C571.851807,205.697342 586.274048,270.087006 600.591919,334.499451 
	C600.805969,335.462372 601.263916,336.371094 601.496826,337.966614 
z"/>
<path fill="#010101" opacity="1.000000" stroke="none" 
	d="
M2151.660156,152.350189 
	C2151.675049,136.581863 2156.801270,124.068840 2168.703857,114.884407 
	C2175.967041,109.280052 2184.219482,106.269295 2193.594482,106.284599 
	C2243.259766,106.365723 2292.925049,106.292755 2342.590332,106.335480 
	C2366.974854,106.356461 2385.491699,124.530663 2385.604248,149.191483 
	C2385.827881,198.189117 2385.774658,247.188797 2385.626221,296.187012 
	C2385.553467,320.262482 2366.980225,339.382446 2342.707275,339.565460 
	C2293.377930,339.937500 2244.041992,339.947357 2194.713135,339.557587 
	C2171.623291,339.375153 2153.764648,322.344086 2152.136719,300.263977 
	C2151.867920,296.616608 2151.682861,292.953522 2151.680420,289.297577 
	C2151.649658,243.965439 2151.660156,198.633286 2151.660156,152.350189 
z"/>
<path fill="#010101" opacity="1.000000" stroke="none" 
	d="
M4236.334961,1560.000244 
	C4236.334961,1601.660034 4236.235840,1642.320068 4236.387207,1682.979248 
	C4236.442383,1697.871704 4231.410156,1710.191040 4219.792480,1719.686768 
	C4212.568359,1725.591187 4204.459961,1728.440674 4194.994629,1728.410522 
	C4145.003418,1728.251587 4095.011719,1728.359863 4045.020264,1728.325317 
	C4021.361328,1728.309082 4003.431641,1711.033081 4002.346680,1687.311157 
	C4002.255371,1685.315674 4002.333496,1683.312378 4002.333496,1681.312744 
	C4002.333496,1327.706421 4002.348389,974.100037 4002.283447,620.493713 
	C4002.280518,605.016052 4006.511230,591.711487 4019.240967,582.008728 
	C4026.605469,576.395691 4034.737061,573.542725 4044.202881,573.577576 
	C4094.193848,573.761902 4144.192871,574.150269 4194.173340,573.409119 
	C4212.518066,573.137207 4232.946289,587.863831 4235.741211,610.207092 
	C4236.275879,614.482483 4236.312500,618.839905 4236.312500,623.159485 
	C4236.336914,935.106384 4236.334961,1247.053223 4236.334961,1560.000244 
z"/>
<path fill="#0F632F" opacity="1.000000" stroke="none" 
	d="
M4118.000000,106.324188 
	C4142.991699,106.324196 4166.982910,106.314339 4190.974609,106.326790 
	C4217.716797,106.340668 4235.956543,124.293777 4236.288574,151.279068 
	C4236.522461,170.269455 4236.333496,189.265045 4236.333984,208.258316 
	C4236.333984,236.914825 4236.488770,265.572479 4236.280273,294.227448 
	C4236.139160,313.622437 4227.812012,328.298889 4209.444336,335.832672 
	C4203.763184,338.162994 4197.250977,339.475647 4191.108398,339.513184 
	C4143.127441,339.806702 4095.143066,339.773132 4047.160400,339.636383 
	C4021.466553,339.563141 4002.434570,320.520142 4002.362305,294.818634 
	C4002.227539,246.836029 4002.198730,198.852310 4002.374268,150.869949 
	C4002.469727,124.751198 4021.167480,106.340088 4047.024414,106.326729 
	C4070.349609,106.314674 4093.674805,106.324173 4118.000000,106.324188 
z"/>
<path fill="#FFFFFE" opacity="1.000000" stroke="none" 
	d="
M3484.328613,1234.265625 
	C3466.274902,1274.293823 3437.797852,1303.669189 3399.844238,1323.679565 
	C3380.929688,1333.651855 3360.585449,1340.050171 3339.170410,1342.195190 
	C3329.941895,1343.119629 3320.630859,1343.613892 3311.356445,1343.624512 
	C3221.078857,1343.727417 3130.801514,1343.686401 3040.523926,1343.686401 
	C3036.912598,1343.686401 3033.301270,1343.686401 3029.012451,1343.686401 
	C3029.012451,1217.841553 3029.012451,1092.786621 3029.012451,967.053650 
	C3031.559326,966.806885 3034.101074,966.346191 3036.643066,966.345154 
	C3129.918701,966.308228 3223.204346,965.509277 3316.465576,966.667419 
	C3360.378906,967.212646 3399.525391,983.726135 3432.923828,1012.490173 
	C3469.955566,1044.383179 3491.887207,1084.653442 3498.405029,1133.266357 
	C3503.064941,1168.021851 3498.900635,1201.458496 3484.328613,1234.265625 
z"/>
<path fill="#FFFFFE" opacity="1.000000" stroke="none" 
	d="
M3378.750732,744.813232 
	C3361.886719,763.773682 3342.052979,777.513733 3319.708252,787.630798 
	C3294.493896,799.047363 3267.875244,803.764709 3240.259033,803.720337 
	C3173.622803,803.613342 3106.986328,803.685669 3040.350098,803.685669 
	C3036.759521,803.685669 3033.168945,803.685669 3028.950928,803.685669 
	C3028.950928,688.317932 3028.950928,573.864441 3028.950928,458.572784 
	C3031.243896,458.294861 3033.741211,457.729095 3036.238770,457.727539 
	C3111.870850,457.680695 3187.508057,457.148651 3263.134033,457.835327 
	C3345.414551,458.582428 3413.298340,517.676025 3425.310059,599.160339 
	C3431.567627,641.609619 3422.469238,681.794128 3399.167480,718.171692 
	C3393.280518,727.361816 3385.901123,735.596008 3378.750732,744.813232 
z"/>
<path fill="#FEFEFE" opacity="1.000000" stroke="none" 
	d="
M374.305420,960.401062 
	C379.429535,934.190552 384.579895,908.854675 389.521484,883.478271 
	C396.048431,849.960571 402.386261,816.406128 408.850983,782.876282 
	C419.958405,725.266663 431.103668,667.664307 442.226715,610.057739 
	C444.300720,599.316467 446.281067,588.556335 448.484924,577.842041 
	C448.757263,576.518005 450.147400,575.424011 452.149780,572.667480 
	C453.586060,578.605530 454.797516,582.877563 455.643005,587.220886 
	C466.853851,644.812378 478.032410,702.410095 489.180298,760.013855 
	C500.832306,820.222656 512.398865,880.448120 524.084290,940.650391 
	C533.811340,990.763000 543.660461,1040.852051 553.444580,1090.953613 
	C554.778564,1097.784180 556.305542,1104.589966 557.302673,1111.471069 
	C561.051208,1137.339600 540.518799,1160.247559 516.683105,1160.302490 
	C472.694275,1160.403931 428.704834,1160.250000 384.716095,1160.368042 
	C365.044739,1160.420898 340.136505,1139.222900 345.329681,1111.657837 
	C354.781342,1061.489746 364.583069,1011.387451 374.305420,960.401062 
z"/>
</svg>